<svg id="bmw-logo" xmlns="http://www.w3.org/2000/svg" width="194.286" height="194.286" viewBox="0 0 194.286 194.286">
  <path id="Path_85" data-name="Path 85" d="M97.143,194.286a97.142,97.142,0,0,0,68.69-165.833,97.142,97.142,0,1,0-137.38,137.38A96.508,96.508,0,0,0,97.143,194.286Z"/>
  <path id="Path_86" data-name="Path 86" d="M8.624,102.406A93.781,93.781,0,0,1,168.719,36.092,93.781,93.781,0,1,1,36.092,168.719,93.169,93.169,0,0,1,8.624,102.406Z" transform="translate(-5.263 -5.263)" fill="#def6fe"/>
  <path id="Path_87" data-name="Path 87" d="M108.457,18.541a89.917,89.917,0,1,0,89.916,89.916,89.917,89.917,0,0,0-89.916-89.916Z" transform="translate(-11.315 -11.315)" fill="#0f4069"/>
  <path id="Path_88" data-name="Path 88" d="M159.317,216.752a57.436,57.436,0,1,1,57.436-57.436A57.436,57.436,0,0,1,159.317,216.752Z" transform="translate(-62.174 -62.174)" fill="#def6fe"/>
  <path id="Path_89" data-name="Path 89" d="M111.362,165.1H165.1V111.362A53.741,53.741,0,0,0,111.362,165.1Zm53.741,0v53.741A53.741,53.741,0,0,0,218.843,165.1Z" transform="translate(-67.96 -67.96)" fill="#0f4069"/>
  <path id="Path_90" data-name="Path 90" d="M93,61.344a6.035,6.035,0,0,0-7.61-.7,5.256,5.256,0,0,0,.032-3.533,8.346,8.346,0,0,0-2.587-3.265c-3.176-2.665-6.518-.39-8.908,2.459L62.384,70.072,80.538,85.306,92.717,70.792c2.783-3.316,3.213-6.6.288-9.448Zm45.217-6.54,6.235-16.525V54.8h4.738V31.137h-7.119L135.6,48.082h.067l-6.476-16.945h-7.119V54.8h4.738V38.279L133.045,54.8Zm63.707,9.846-8.921,12.63,13.83-6.566,3.662,4.522L188.731,85.789l-4.3-5.35L193,67.92l-.051-.063-14.026,5.772-4.34-5.316,14.848-19.1,3.662,4.522L183.79,65.9,198,59.8l3.929,4.851Z" transform="translate(-38.071 -19.002)" fill="#def6fe"/>
  <path id="Path_91" data-name="Path 91" d="M87.63,103.373c.8-.958,2.62-.919,3.788.061a2.49,2.49,0,0,1,.425,3.633l-6.858,8.173-4.291-3.6Zm12.2,9.642L92.6,121.632l-4.534-3.8,7.289-8.687a2.97,2.97,0,0,1,4.476,3.875Z" transform="translate(-49.244 -62.66)" fill="#0f4069"/>
</svg>
