<svg xmlns="http://www.w3.org/2000/svg" width="798.052" height="823.863" viewBox="0 0 798.052 823.863">
  <g id="Group_20" data-name="Group 20" transform="translate(-731.232 -419.458)">
    <g id="Group_10" data-name="Group 10" transform="translate(731.232 419.458)">
      <path id="Path_17" data-name="Path 17" d="M1193.321,474.537H989.948s20.165-55.079,51.2-55.079,40.753,38.017,40.753,38.017,20.94-20.655,38.139-20.655,32.153,27.294,32.153,27.294S1176.5,449.438,1193.321,474.537Z" transform="translate(-517.383 -419.458)" fill="#e7eaee"/>
      <path id="Path_18" data-name="Path 18" d="M1068.093,545.367H973.051S994.288,514.6,1011.02,514.6,1032.7,535.11,1032.7,535.11s11.809-9.573,22.748-7.863S1068.093,545.367,1068.093,545.367Z" transform="translate(-531.35 -340.817)" fill="#e7eaee" opacity="0.5"/>
      <path id="Path_19" data-name="Path 19" d="M1211.152,517.5H1116.11s21.238-30.769,37.969-30.769,21.676,20.512,21.676,20.512,11.807-9.571,22.748-7.862S1211.152,517.5,1211.152,517.5Z" transform="translate(-413.1 -363.848)" fill="#e7eaee" opacity="0.5"/>
      <path id="Path_20" data-name="Path 20" d="M916.355,570.849H731.232s25.351-56.6,52.472-60.136,40.09,42.055,40.09,42.055,17.491-16.114,31.247-16.114,24.368,21.225,24.368,21.225S906.923,543.335,916.355,570.849Z" transform="translate(-731.232 -344.191)" fill="#e7eaee"/>
      <path id="Path_21" data-name="Path 21" d="M970.189,495.851H845.136s21.481-41,44.784-41.6,35.554,31.034,35.554,31.034S961.725,456.19,970.189,495.851Z" transform="translate(-637.081 -390.708)" fill="#e7eaee" opacity="0.5"/>
    </g>
    <g id="Group_11" data-name="Group 11" transform="translate(753.055 760.866)">
      <path id="Path_22" data-name="Path 22" d="M743.179,606.369l24.3,167.448,129.26,110.64L954.671,1005l166.241,83.823,133.214-42.519,80.183-126.342,95.246-72.367,68.03-241.227H743.179" transform="translate(-743.179 -606.369)" fill="#0f4069"/>
      <path id="Path_23" data-name="Path 23" d="M839.435,797.341l22.677,55.072,38.47,22.677-50.618-12.958Z" transform="translate(-663.617 -448.516)" fill="#0f4069"/>
      <path id="Path_24" data-name="Path 24" d="M1094.467,817.452l57.514-42.155,13.768-71.29-3.2,76.333Z" transform="translate(-452.813 -525.664)" fill="#0f4069"/>
      <path id="Path_25" data-name="Path 25" d="M862.919,841.721l32.047,18.627H931.41Z" transform="translate(-644.206 -411.833)" fill="#0f4069"/>
    </g>
    <g id="Group_16" data-name="Group 16" transform="translate(898.408 464.389)">
      <g id="Group_13" data-name="Group 13" transform="translate(0 296.469)">
        <path id="Path_26" data-name="Path 26" d="M822.761,606.369l11.806,45.144,24.51,29.463,38.093,93.588,54.413,27.73L992.71,914.948l63.3,48.527,28.873,62.393,18.878,10.4,23.32-46.794,30.005-162.913,62.164-50.26,6.672-76.257,20.823-8.666,5.719-32.929,33.571-52.077Z" transform="translate(-822.753 -606.362)" fill="#3496fd"/>
        <path id="Path_27" data-name="Path 27" d="M822.761,606.369l11.806,45.144,24.51,29.463,38.093,93.588,54.413,27.73L992.71,914.948l63.3,48.527,28.873,62.393,18.878,10.4,23.32-46.794,30.005-162.913,62.164-50.26,6.672-76.257,20.823-8.666,5.719-32.929,33.571-52.077Z" transform="translate(-822.753 -606.362)" fill="#fff" opacity="0.2"/>
        <path id="Path_28" data-name="Path 28" d="M1119.968,847.519l-16.2,188.741-18.886-10.394-28.86-62.386-63.308-48.527L951.594,802.3l-54.415-27.718-38.093-93.59-24.514-29.481-11.816-45.143H973.445L1099.6,693l-28.479,85.258Z" transform="translate(-822.756 -606.365)" fill="#3496fd"/>
        <path id="Path_29" data-name="Path 29" d="M834.572,651.507l129.55-9.413L1099.6,693l-126.155-86.64H822.756Z" transform="translate(-822.756 -606.365)" opacity="0.1"/>
        <path id="Path_30" data-name="Path 30" d="M958.728,700.474l5.584,65.933,35.826,89.958,7.437-86.635Z" transform="translate(-710.365 -528.576)" opacity="0.1"/>
        <path id="Path_31" data-name="Path 31" d="M1074.629,657.652l-40.688,17.611-28.148,108.907,47.129-68.613Z" transform="translate(-671.462 -563.972)" fill="#3496fd"/>
        <path id="Path_32" data-name="Path 32" d="M1100.505,648.774l-93.907-30.7,88.188,63.634Z" transform="translate(-670.796 -596.69)" fill="#3496fd"/>
        <path id="Path_33" data-name="Path 33" d="M915.8,775.308l78.415,25.814L979.11,823.835Z" transform="translate(-745.847 -466.721)" opacity="0.1"/>
        <path id="Path_34" data-name="Path 34" d="M979.321,874.54l-13.752-85.1-15.108,22.713Z" transform="translate(-717.198 -455.039)" fill="#fff" opacity="0.3"/>
        <path id="Path_35" data-name="Path 35" d="M935.154,768.527l28.512-31.361-121.02-89.947,38.093,93.59Z" transform="translate(-806.316 -572.596)" opacity="0.1"/>
        <path id="Path_36" data-name="Path 36" d="M978.793,710.179l-44.339-12.434,51.5-9.011,48.344,17Z" transform="translate(-730.429 -538.281)" fill="#3496fd"/>
        <g id="Group_12" data-name="Group 12" transform="translate(204.025 150.453)">
          <path id="Path_37" data-name="Path 37" d="M978.793,710.179l-44.339-12.434,51.5-9.011,48.344,17Z" transform="translate(-934.454 -688.734)" fill="#fff" opacity="0.2"/>
          <path id="Path_38" data-name="Path 38" d="M934.454,697.745l51.5-9.011,48.344,17" transform="translate(-934.454 -688.734)" fill="#3496fd"/>
        </g>
        <path id="Path_39" data-name="Path 39" d="M834.572,651.507l138.872-45.143H822.756Z" transform="translate(-822.756 -606.365)" opacity="0.1"/>
        <path id="Path_40" data-name="Path 40" d="M964.312,766.407l43.264,3.323-48.848-69.256Z" transform="translate(-710.365 -528.576)" opacity="0.1"/>
        <path id="Path_41" data-name="Path 41" d="M1006.6,618.07l26.677,89.911,61.511-26.276Z" transform="translate(-670.796 -596.69)" fill="#fff" opacity="0.3"/>
        <path id="Path_42" data-name="Path 42" d="M905.254,606.365l49.808,14.756,93.711-14.748Z" transform="translate(-754.565 -606.365)" fill="#3496fd"/>
      </g>
      <g id="Group_15" data-name="Group 15" transform="translate(0.001)">
        <g id="Group_14" data-name="Group 14" transform="translate(0.007 0.002)">
          <path id="Path_43" data-name="Path 43" d="M880.171,740.532h405.862l-19.443-22.467-7.762-24.888-68.4-44.537-31.87-21.613-40.3-12.653-35.591-67.867-62.619-42.133-28.76-60.317-40.351,25.4-41.9,93.383-33.087,25.543L869.4,628.338l-28.158,53.051,12.951,31.437-18.217,17.029-13.214,10.678Z" transform="translate(-822.761 -444.058)" fill="#3496fd"/>
          <path id="Path_44" data-name="Path 44" d="M880.171,740.532h405.862l-19.443-22.467-7.762-24.888-68.4-44.537-31.87-21.613-40.3-12.653-35.591-67.867-62.619-42.133-28.76-60.317-40.351,25.4-41.9,93.383-33.087,25.543L869.4,628.338l-28.158,53.051,12.951,31.437-18.217,17.029-13.214,10.678Z" transform="translate(-822.761 -444.058)" fill="#fff" opacity="0.7"/>
        </g>
        <path id="Path_45" data-name="Path 45" d="M1099.59,740.528H822.757l31.445-27.7L841.24,681.4,869.4,628.334l6.556-39.947,33.1-25.54,41.885-93.387,40.355-25.405L954.242,554.077l16.648,31.78-16.648,40.678,23.2,30.375,72.215,22.433,4.738,31.317Z" transform="translate(-822.757 -444.056)" fill="#3496fd" opacity="0.4"/>
        <path id="Path_46" data-name="Path 46" d="M882.469,515.229l25.2-15.128,33.74-.731L907.423,513.2Z" transform="translate(-773.4 -398.335)" fill="#3496fd"/>
        <path id="Path_47" data-name="Path 47" d="M882.469,515.229l25.2-15.128,33.74-.731L907.423,513.2Z" transform="translate(-773.4 -398.335)" fill="#fff" opacity="0.7"/>
        <path id="Path_48" data-name="Path 48" d="M882.469,515.229,941.4,499.37,907.423,513.2Z" transform="translate(-773.4 -398.335)" fill="#3496fd" opacity="0.4"/>
        <path id="Path_49" data-name="Path 49" d="M980.106,618.9,854.2,591.2l-31.445,27.7Z" transform="translate(-822.757 -322.431)" fill="#3496fd" opacity="0.7"/>
        <path id="Path_50" data-name="Path 50" d="M1005.867,537.3l-47.135,38.33,87.432-25.677Z" transform="translate(-710.363 -366.982)" fill="#fff" opacity="0.7"/>
        <path id="Path_51" data-name="Path 51" d="M1121.246,597.739l-61.193-8.11L998.6,620.2l142.093,0Z" transform="translate(-677.411 -323.729)" fill="#3496fd" opacity="0.4"/>
        <path id="Path_52" data-name="Path 52" d="M953.017,477.08l-49.161,81.481,111.78-39.348Z" transform="translate(-755.722 -416.76)" fill="#fff" opacity="0.7"/>
        <path id="Path_53" data-name="Path 53" d="M914.735,519.994l4.616,27.221,31.4,34.225-24.085-37.212,1.484-28.958Z" transform="translate(-746.73 -385.192)" fill="#3496fd" opacity="0.5"/>
        <path id="Path_54" data-name="Path 54" d="M867.591,523.074l50.871,56.745,5,64.824-90.586-28.562,28.159-53.061Z" transform="translate(-814.393 -378.742)" fill="#3496fd" opacity="0.7"/>
        <path id="Path_55" data-name="Path 55" d="M870,551.351l46.19-56.688-4.305-36.7Z" transform="translate(-783.706 -432.56)" fill="#3496fd" opacity="0.7"/>
        <path id="Path_56" data-name="Path 56" d="M983.195,604.186l-4.738-31.316-42.916,23.51L908.9,634.055Z" transform="translate(-751.552 -337.582)" fill="#3496fd" opacity="0.7"/>
        <path id="Path_57" data-name="Path 57" d="M1032.243,597.221l53.431-16.777,7.761,24.887C1088.576,604.688,1032.243,597.221,1032.243,597.221Z" transform="translate(-649.6 -331.321)" fill="#fff" opacity="0.7"/>
        <path id="Path_58" data-name="Path 58" d="M958.732,569.905l34.632,5.131,52.8-30.808Z" transform="translate(-710.363 -361.256)" fill="#3496fd" opacity="0.4"/>
        <path id="Path_59" data-name="Path 59" d="M848.292,563.02l57.426,16.8-50.871-56.745Z" transform="translate(-801.65 -378.742)" fill="#3496fd"/>
        <path id="Path_60" data-name="Path 60" d="M908.9,634.055l69.556-61.185-42.916,23.51Z" transform="translate(-751.552 -337.582)" fill="#3496fd"/>
      </g>
    </g>
    <g id="Group_17" data-name="Group 17" transform="translate(858.683 791.278)">
      <path id="Path_61" data-name="Path 61" d="M893.352,758.186c.287.163,31.788.637,32.455,1.019s-6.329,6.875-12.943,7.447c-9.909.855-19.511-7-19.511-7s-4.9,3.768-6.042,2.42,4.758-2.848,4.758-2.848-7.531-.964-6.959-3.07S893.352,758.186,893.352,758.186Z" transform="translate(-731.518 -513.462)" fill="#fff"/>
      <path id="Path_62" data-name="Path 62" d="M881.5,696.615c.283-.048,22.058-17.12,22.723-17.228s-.524,8.19-4.725,12.234c-6.294,6.055-17.186,6-17.186,6s-1.266,5.279-2.789,4.99,1.677-4.574,1.677-4.574-5.675,3.5-6.448,1.748S881.5,696.615,881.5,696.615Z" transform="translate(-740.097 -576.428)" fill="#fff"/>
      <path id="Path_63" data-name="Path 63" d="M877.69,767.287c.208.2,26.94,7.336,27.426,7.8s-6.861,4.506-12.616,3.58c-8.623-1.388-15.126-10.128-15.126-10.128s-4.979,2.162-5.664.771,4.661-1.41,4.661-1.41-6.208-2.429-5.271-4.1S877.69,767.287,877.69,767.287Z" transform="translate(-743.152 -506.928)" fill="#fff"/>
      <path id="Path_64" data-name="Path 64" d="M819.285,671.487c.119.1,14.474,2.705,14.75,2.93s-3.414,2.661-6.479,2.42c-4.592-.362-8.382-4.678-8.382-4.678s-2.526,1.35-2.944.646,2.389-.939,2.389-.939-3.366-1.012-2.946-1.931S819.285,671.487,819.285,671.487Z" transform="translate(-788.917 -584.407)" fill="#fff"/>
      <path id="Path_65" data-name="Path 65" d="M862.889,681.629c.15.031,14.129-4.148,14.476-4.073s-1.836,3.92-4.678,5.092c-4.258,1.759-9.591-.369-9.591-.369s-1.64,2.347-2.333,1.911,1.7-1.922,1.7-1.922-3.46.625-3.5-.385S862.889,681.629,862.889,681.629Z" transform="translate(-753.102 -577.941)" fill="#fff"/>
      <path id="Path_66" data-name="Path 66" d="M809.012,683.348c.451-.046,21.868-5.986,23.031-6.051s-3.262,6.1-9.105,8.959-13.69-2.126-13.69-2.126-6.163,3.938-6.864,2.4,4.924-2.594,4.924-2.594-6.649-.776-6.285-2.7S809.012,683.348,809.012,683.348Z" transform="translate(-801.008 -578.155)" fill="#fff"/>
      <path id="Path_67" data-name="Path 67" d="M898.721,737.924c.322-.033,15.641-4.3,16.474-4.351s-2.329,4.366-6.508,6.419-9.8-1.509-9.8-1.509-4.406,2.824-4.908,1.726,3.52-1.859,3.52-1.859-4.758-.55-4.5-1.927S898.721,737.924,898.721,737.924Z" transform="translate(-724.977 -531.637)" fill="#fff"/>
      <path id="Path_68" data-name="Path 68" d="M884.394,679.271c.356-.122,16.532-9,17.462-9.27s-1.478,5.547-5.657,8.972-11.467.886-11.467.886-4.23,4.353-5.089,3.246,3.487-3.03,3.487-3.03-5.522.635-5.593-.99S884.394,679.271,884.394,679.271Z" transform="translate(-737.751 -584.192)" fill="#fff"/>
      <path id="Path_69" data-name="Path 69" d="M1017.759,706.319c-.287.016-25.3-11.745-25.972-11.7s2.34,7.858,7.334,10.857c7.48,4.492,18.072,2,18.072,2s2.411,4.859,3.83,4.236-2.652-4.079-2.652-4.079,6.305,2.143,6.667.263S1017.759,706.319,1017.759,706.319Z" transform="translate(-643.392 -563.837)" fill="#fff"/>
      <path id="Path_70" data-name="Path 70" d="M1103.057,669.515c-.12.091-14.521,2.338-14.8,2.555s3.342,2.742,6.409,2.579c4.594-.247,8.488-4.462,8.488-4.462s2.488,1.412,2.924.72-2.364-1-2.364-1,3.388-.926,2.992-1.854S1103.057,669.515,1103.057,669.515Z" transform="translate(-563.589 -585.969)" fill="#fff"/>
      <path id="Path_71" data-name="Path 71" d="M1037.919,747c-.148.033-14.145-4.037-14.492-3.958s1.865,3.9,4.713,5.052c4.267,1.724,9.579-.444,9.579-.444s1.656,2.332,2.345,1.89-1.719-1.905-1.719-1.905,3.462.6,3.5-.411S1037.919,747,1037.919,747Z" transform="translate(-617.191 -523.815)" fill="#fff"/>
      <path id="Path_72" data-name="Path 72" d="M1064.289,628.011c-.437.111-22.573,1.85-23.687,2.186s5.146,4.609,11.61,5.3,12.125-6.673,12.125-6.673,7.131,1.591,7.265-.09-5.509-.752-5.509-.752,5.976-3,4.978-4.683S1064.289,628.011,1064.289,628.011Z" transform="translate(-603.073 -623.019)" fill="#fff"/>
      <path id="Path_73" data-name="Path 73" d="M1053.248,772.406c-.376-.139-17.5-9.991-18.492-10.306s1.462,5.971,5.86,9.728,12.258,1.2,12.258,1.2,4.437,4.753,5.379,3.586-3.668-3.321-3.668-3.321,5.9.8,6.01-.937S1053.248,772.406,1053.248,772.406Z" transform="translate(-607.978 -508.067)" fill="#fff"/>
      <path id="Path_74" data-name="Path 74" d="M1003.717,713.038c-.322.034-16.174-.99-17-.866s3.175,3.788,7.682,4.937,9.266-3.491,9.266-3.491,4.888,1.854,5.155.678S1005,713.2,1005,713.2s4.537-1.516,4-2.809S1003.717,713.038,1003.717,713.038Z" transform="translate(-647.593 -551.013)" fill="#fff"/>
      <path id="Path_75" data-name="Path 75" d="M1062.083,754.547c-.354.123-18.538,3.135-19.436,3.491s4.583,3.447,9.978,3.56,9.555-6.382,9.555-6.382,6.011.809,6-.59-4.609-.23-4.609-.23,4.729-2.908,3.783-4.227S1062.083,754.547,1062.083,754.547Z" transform="translate(-601.356 -518.084)" fill="#fff"/>
    </g>
    <path id="Path_76" data-name="Path 76" d="M733.043,606.781l98.929-.444,98.929-.161,197.858-.306,197.859.3,98.929.16,98.93.447-98.93.447-98.929.16-197.859.3L930.9,607.387l-98.929-.161Z" transform="translate(1.498 154.084)" fill="#0b2c4e"/>
    <g id="Group_18" data-name="Group 18" transform="translate(1248.964 485.828)">
      <circle id="Ellipse_1" data-name="Ellipse 1" cx="43.365" cy="43.365" r="43.365" transform="translate(0 32.715) rotate(-22.16)" fill="#3496fd" opacity="0.6"/>
      <circle id="Ellipse_2" data-name="Ellipse 2" cx="33.205" cy="33.205" r="33.205" transform="translate(12.8 39.381) rotate(-23.594)" fill="#3496fd"/>
    </g>
    <g id="Group_19" data-name="Group 19" transform="translate(841.062 481.289)">
      <path id="Path_77" data-name="Path 77" d="M1101.634,526.4a32.869,32.869,0,0,0-4.061-1.739,17.059,17.059,0,0,0-4.426-1.021,3.8,3.8,0,0,0-1.375.153,1.975,1.975,0,0,0-.422.2c-.111.071-.179.13-.27.2-.181.128-.32.259-.477.389a21.051,21.051,0,0,0-1.609,1.629c-1,1.12-1.885,2.287-2.773,3.487l1.1-.385a33.69,33.69,0,0,0-4.519-.954,18.8,18.8,0,0,0-2.36-.166,8.617,8.617,0,0,0-1.257.089,4.561,4.561,0,0,0-.674.164,5.036,5.036,0,0,0-.676.321,8,8,0,0,0-1.786,1.71,22.32,22.32,0,0,0-1.333,1.889,28.959,28.959,0,0,0-2.1,4.033c.97-1.162,1.907-2.333,2.906-3.43.49-.553.99-1.1,1.518-1.585a7.254,7.254,0,0,1,1.591-1.237,4.122,4.122,0,0,1,1.768-.175,16.906,16.906,0,0,1,2.109.289c1.419.256,2.868.608,4.26.986l.7.19.4-.575c.813-1.165,1.693-2.318,2.575-3.425a18.931,18.931,0,0,1,1.363-1.571c.117-.111.235-.239.349-.327l.161-.139c.018-.005.016-.026.066-.042a2.193,2.193,0,0,1,.776-.155,21.56,21.56,0,0,1,4.177.407C1098.759,525.839,1100.186,526.136,1101.634,526.4Z" transform="translate(-558.885 -395.176)" fill="#0b2c4e"/>
      <path id="Path_78" data-name="Path 78" d="M1100.377,551.819a48.252,48.252,0,0,0-5.46-3.741,25.455,25.455,0,0,0-6.2-2.791,5.63,5.63,0,0,0-2.062-.177,3.013,3.013,0,0,0-.679.168c-.185.075-.3.139-.455.208-.3.135-.544.289-.813.435a31.411,31.411,0,0,0-2.842,1.923c-1.792,1.354-3.436,2.811-5.09,4.314l1.728-.247a50.359,50.359,0,0,0-6.362-2.718,27.853,27.853,0,0,0-3.419-.932,12.237,12.237,0,0,0-1.873-.236,6.524,6.524,0,0,0-1.037.044,7.844,7.844,0,0,0-1.088.274,11.992,11.992,0,0,0-3.122,1.993,34.152,34.152,0,0,0-2.512,2.384,43.509,43.509,0,0,0-4.267,5.314c1.765-1.425,3.484-2.87,5.27-4.192a32.346,32.346,0,0,1,2.694-1.889,10.984,10.984,0,0,1,2.7-1.352,6.126,6.126,0,0,1,2.65.259,25.459,25.459,0,0,1,3.017,1.039c2.009.789,4.035,1.73,5.969,2.691l.972.484.756-.729c1.534-1.476,3.165-2.912,4.784-4.28a28.9,28.9,0,0,1,2.46-1.912c.205-.128.417-.281.608-.378l.278-.155c.029,0,.029-.035.108-.044a3.3,3.3,0,0,1,1.187,0,32.378,32.378,0,0,1,6.016,1.817C1096.319,550.15,1098.328,551,1100.377,551.819Z" transform="translate(-573.592 -377.456)" fill="#0b2c4e"/>
      <path id="Path_79" data-name="Path 79" d="M821.624,466.036a32.23,32.23,0,0,0-3.721-2.38,17.022,17.022,0,0,0-4.2-1.73,3.793,3.793,0,0,0-1.381-.075,2.116,2.116,0,0,0-.449.128c-.12.053-.2.1-.3.15-.2.095-.356.2-.533.307a20.879,20.879,0,0,0-1.854,1.343c-1.167.943-2.232,1.949-3.3,2.986l1.147-.2a33.612,33.612,0,0,0-4.3-1.679,18.735,18.735,0,0,0-2.3-.55,8.564,8.564,0,0,0-1.255-.117,4.617,4.617,0,0,0-.692.053,5.01,5.01,0,0,0-.72.206,7.936,7.936,0,0,0-2.04,1.4,22.194,22.194,0,0,0-1.624,1.644,29.033,29.033,0,0,0-2.734,3.635c1.147-.988,2.261-1.989,3.427-2.91.573-.466,1.154-.921,1.757-1.317a7.274,7.274,0,0,1,1.77-.959,4.109,4.109,0,0,1,1.773.117,16.672,16.672,0,0,1,2.035.63c1.359.482,2.729,1.067,4.04,1.668l.659.3.49-.5c.992-1.017,2.049-2.009,3.1-2.959a19.467,19.467,0,0,1,1.6-1.326c.133-.089.272-.2.4-.267l.183-.11c.018,0,.018-.024.071-.031a2.226,2.226,0,0,1,.791-.027,21.477,21.477,0,0,1,4.053,1.085C818.882,465.01,820.241,465.536,821.624,466.036Z" transform="translate(-791.361 -446.276)" fill="#0b2c4e"/>
      <path id="Path_80" data-name="Path 80" d="M848.253,467.211a48.706,48.706,0,0,0-4.1-5.193,25.512,25.512,0,0,0-5.1-4.508,5.691,5.691,0,0,0-1.918-.782,2.936,2.936,0,0,0-.7-.038c-.2.015-.329.042-.5.062-.329.04-.6.113-.9.174a31.738,31.738,0,0,0-3.284.994c-2.113.762-4.115,1.664-6.143,2.608l1.722.278a50.507,50.507,0,0,0-5.266-4.482,27.582,27.582,0,0,0-2.988-1.905,12.469,12.469,0,0,0-1.719-.782,6.609,6.609,0,0,0-1-.265,7.324,7.324,0,0,0-1.12-.062,11.923,11.923,0,0,0-3.573.977,33.134,33.134,0,0,0-3.107,1.531,43.379,43.379,0,0,0-5.651,3.807c2.108-.837,4.177-1.708,6.278-2.44,1.039-.378,2.086-.738,3.131-1a11.011,11.011,0,0,1,2.977-.491,6.172,6.172,0,0,1,2.455,1.036,25.731,25.731,0,0,1,2.572,1.889c1.684,1.35,3.339,2.848,4.9,4.342l.784.749.941-.471c1.9-.954,3.887-1.839,5.838-2.667a28.125,28.125,0,0,1,2.917-1.094c.232-.062.48-.146.692-.181l.313-.066c.029,0,.038-.026.115-.011a3.336,3.336,0,0,1,1.134.351,32.343,32.343,0,0,1,5.207,3.522C844.872,464.413,846.538,465.823,848.253,467.211Z" transform="translate(-781.821 -453.309)" fill="#0b2c4e"/>
      <path id="Path_81" data-name="Path 81" d="M1128.536,549.261a48.513,48.513,0,0,0-4.1-5.191,25.52,25.52,0,0,0-5.1-4.508,5.659,5.659,0,0,0-1.918-.782,2.987,2.987,0,0,0-.7-.04c-.2.015-.329.042-.5.064-.329.038-.606.113-.9.174a31.151,31.151,0,0,0-3.286.992c-2.114.762-4.114,1.666-6.141,2.608l1.723.279a50.4,50.4,0,0,0-5.268-4.484,27.7,27.7,0,0,0-2.988-1.905,12.79,12.79,0,0,0-1.717-.782,6.6,6.6,0,0,0-1.006-.265,7.788,7.788,0,0,0-1.12-.062,11.944,11.944,0,0,0-3.573.977,33.85,33.85,0,0,0-3.1,1.531,43.729,43.729,0,0,0-5.653,3.807c2.109-.837,4.179-1.706,6.278-2.439a32.064,32.064,0,0,1,3.132-1,10.851,10.851,0,0,1,2.977-.491,6.128,6.128,0,0,1,2.453,1.036,25.031,25.031,0,0,1,2.572,1.887c1.686,1.35,3.341,2.849,4.9,4.342l.784.749.939-.469c1.9-.955,3.887-1.841,5.84-2.669a29.042,29.042,0,0,1,2.917-1.094c.232-.062.479-.146.692-.181l.311-.066c.029.005.038-.024.117-.011a3.332,3.332,0,0,1,1.133.351,32.155,32.155,0,0,1,5.207,3.524C1125.157,546.463,1126.823,547.875,1128.536,549.261Z" transform="translate(-550.145 -385.488)" fill="#0b2c4e"/>
    </g>
  </g>
</svg>
