<svg id="g4421" xmlns="http://www.w3.org/2000/svg" width="252.022" height="166.193" viewBox="0 0 252.022 166.193">
  <path id="path4423" d="M77.624,73.865v40.7H64.669V63.408l26.746.027c11.36,0,15.23,8.011,15.23,15.288v35.841H93.714V78.789c0-3.048-1.578-4.924-5.384-4.924H77.624Zm88.092-.611c-4.428,0-7.855,2.276-9.286,5.367a13.264,13.264,0,0,0-1.24,5.549h19.931c-.256-5.549-2.772-10.916-9.4-10.916M155.191,92.987c0,6.626,4.119,11.5,11.474,11.5,5.722,0,8.566-1.586,11.875-4.877l8,7.64c-5.123,5.058-10.5,8.13-19.971,8.13-12.4,0-24.27-6.762-24.27-26.47,0-16.839,10.362-26.372,23.978-26.372,13.8,0,21.775,11.16,21.775,25.779v4.667H155.191M131.364,114.5c-10.554,0-15.032-7.347-15.032-14.6V49.471h12.935V63.408h9.751V73.865h-9.751V99.085c0,2.972,1.4,4.621,4.489,4.621h5.262V114.5h-7.654M53.142,56.339H40.1V43.948H53.142Zm.033,58.762c-9.768-.939-13.09-6.864-13.09-13.7L40.1,63.408H53.175V115.1Zm155.466-1.093c-9.748-.94-13.055-6.856-13.055-13.683V42.185h13.055v71.823ZM254.28,50.587C242.449-7.094,130.48-10.746,58.31,33.19V38.04C130.407.988,232.658,1.207,241.975,54.334c3.117,17.567-6.782,35.883-24.462,46.41v13.774c21.28-7.785,43.1-33.029,36.767-63.93M123.09,151.507c-49.81,4.6-101.714-2.625-108.977-41.547C10.559,90.773,19.3,70.434,30.895,57.8V51.044C10.021,69.348-1.308,92.522,5.214,119.9c8.324,35.112,52.871,55.011,120.865,48.4,26.9-2.626,62.113-11.276,86.591-24.711V124.509c-22.212,13.226-58.968,24.164-89.58,27" transform="translate(-3.372 -3.372)" fill="#0f4069"/>
  <path id="path4425" d="M863.52,162.006c0-.633-.37-.834-1.215-.834h-.816v1.791c.119,0,.711.022.816.022.845,0,1.215-.282,1.215-.875v-.1Zm1.272,4.442h-.967a.231.231,0,0,1-.2-.128l-1.319-2.236a.3.3,0,0,0-.182-.1h-.593V166.2a.236.236,0,0,1-.237.246h-.875a.255.255,0,0,1-.218-.246v-5.608c0-.324.126-.46.4-.5.309-.041,1.147-.069,1.6-.069,1.606,0,2.577.474,2.577,1.983v.1a1.6,1.6,0,0,1-1.185,1.668l1.367,2.312a.931.931,0,0,1,.041.165.187.187,0,0,1-.209.192M862.5,159.01a4.316,4.316,0,1,0,4.31,4.33,4.332,4.332,0,0,0-4.31-4.33m0,9.523a5.194,5.194,0,1,1,5.209-5.194,5.187,5.187,0,0,1-5.209,5.194" transform="translate(-643.16 -119.333)" fill="#0f4069"/>
</svg>
