<svg xmlns="http://www.w3.org/2000/svg" width="424.526" height="181.894" viewBox="0 0 424.526 181.894">
  <g id="Group_23" data-name="Group 23" transform="translate(-72.367 -151.947)">
    <path id="Path_92" data-name="Path 92" d="M618.333,328.228c1.359,1.23,2.395,2.2,3.495,3.171,5.372,5.048,11.2,8.931,18.251,9.967,7.119,1.036,14.109.971,20.128-4.53a15.577,15.577,0,0,0,5.242-10.161,10.422,10.422,0,0,0-.971-5.825c-1.877-4.013-5.242-6.472-8.737-8.478-6.083-3.495-12.3-6.537-18.251-10.226a49.276,49.276,0,0,1-10.1-7.96c-7.054-7.572-7.184-19.221-.841-27.57a24.518,24.518,0,0,1,17.28-9.837,58.506,58.506,0,0,1,23.881,1.553c2.718.777,2.848,1.165,2.848,4.336,0,4.077,0,8.219-.065,12.3a28.244,28.244,0,0,1-.259,2.912,9.731,9.731,0,0,1-1.424-1.424,24.276,24.276,0,0,0-16.5-7.507A26.846,26.846,0,0,0,640.4,270.5a9.6,9.6,0,0,0-5.437,4.919c-1.812,3.689-1.489,6.731,1.036,9.837,2.977,3.689,6.731,5.954,10.679,7.96,6.731,3.56,13.656,6.99,20.257,11.067,12.75,8.025,12.167,22.91,7.7,31.259-3.56,6.731-8.931,11.067-15.209,14.173-8.931,4.336-18.121,3.754-27.247,2.006a63.465,63.465,0,0,1-8.349-2.2,3.053,3.053,0,0,1-1.877-2.006c-1.294-6.019-2.395-12.167-3.624-18.186C618.139,329.328,618.2,329.069,618.333,328.228Z" transform="translate(-192.58 -36.778)" fill="#0f4069"/>
    <path id="Path_93" data-name="Path 93" d="M178,399.52c1.424-1.812,2.718-3.689,4.271-5.436.453-.518,1.424-.518,2.2-.518q46.6,0,93.2.194c7.9,0,15.727.065,23.622.582a51.411,51.411,0,0,1,11.649,2.589c4.142,1.424,7.378,4.336,8.8,9.9a12.312,12.312,0,0,0,.906-1.553,14.114,14.114,0,0,1,8.931-8.672c5.954-2.2,12.1-2.524,18.251-2.524,35.6-.194,71.255-.259,106.915-.453a22.119,22.119,0,0,0,2.912-.065c1.489-.259,2.395.259,2.524,2.2a4.178,4.178,0,0,0,.259,1.23c.712,3.56.712,3.689-2.589,4.013-2.783.259-5.5.453-8.349.453q-52.908.1-105.815.065a26.238,26.238,0,0,0-16.374,5.177,18.34,18.34,0,0,0-6.8,11.067,3.411,3.411,0,0,1-.324.971c0,.065-.129.194-.388.324a13.547,13.547,0,0,1-.518-1.489c-1.424-6.666-5.372-10.743-10.679-13.332a29.8,29.8,0,0,0-12.879-2.783c-19.674-.065-39.414.065-59.088.065q-25.435-.1-50.8-.518c-3.171-.065-6.342-.518-9.514-.841A.788.788,0,0,1,178,399.52Z" transform="translate(-37.269 -85.224)" fill="#0f4069"/>
    <path id="Path_94" data-name="Path 94" d="M299.215,310.969c.841-.065,1.294-.259,1.747-.259H315.2c1.294,0,1.747.453,1.747,2.006V344.04c0,1.747-.518,2.589-2.2,3.042a83.888,83.888,0,0,1-24.075,2.071c-8.543-.518-16.762-2.912-23.687-9.19-14.109-12.491-15.079-37.8-1.942-52.293a34.451,34.451,0,0,1,22.328-11.326,65.758,65.758,0,0,1,21.94,1.035c.841.194,1.489.259,1.489,1.553-.129,4.077-.324,8.155-.453,12.555-.841-.259-1.489-.324-2.136-.582-6.925-2.589-13.85-4.207-21.163-3.3-17.28,2.2-22.781,21.422-16.115,36.048,5.178,11.261,13.785,15.921,24.528,15.532,2.654-.065,5.307-.777,7.96-1.036,1.294-.194,1.683-.841,1.618-2.265,0-5.177.065-10.42,0-15.532a6,6,0,0,0-.971-2.912C302.58,315.24,300.962,313.234,299.215,310.969Z" transform="translate(-64.706 -43.723)" fill="#0f4069"/>
    <path id="Path_95" data-name="Path 95" d="M429.3,347.475c1.359-1.294,2.718-2.718,4.271-3.948a4.568,4.568,0,0,0,1.683-4.013c-.065-17.15,0-34.171,0-51.257a5.013,5.013,0,0,0-1.618-4.077c-.971-.841-1.877-1.747-2.848-2.718.129-.194.324-.323.388-.453.065-.065.129-.259.259-.259,4.4,0,8.8-.194,13.073,0,.906,0,1.877,1.165,2.589,1.942,9.384,10.937,18.7,21.81,28.088,32.813a8.92,8.92,0,0,1,.906,1.942,7.108,7.108,0,0,1,.906-.583v-32.1c0-4.919-.259-4.013,3.495-4.077h11.132a4.089,4.089,0,0,0,.259.582c-.971.841-1.877,1.812-2.848,2.589-1.618,1.23-2.136,2.783-2.136,5.048.065,18.768,0,37.537,0,56.435v3.43c-.259.065-.388.259-.582.324-13.4-16.762-26.794-33.524-40.514-50.675-.065,1.23-.129,2.006-.129,2.718V345.6c0,1.942-.388,2.589-2.2,2.589-3.948-.194-7.96,0-11.908-.065-.582,0-1.294-.065-1.877-.065A1.529,1.529,0,0,1,429.3,347.475Z" transform="translate(-125.93 -45.411)" fill="#0f4069"/>
    <path id="Path_96" data-name="Path 96" d="M531,346.773c4.724-5.307,4.789-11.779,4.789-18.251.065-10.484.065-20.9.065-31.324,0-9.708,0-9.708-4.53-17.409a13.78,13.78,0,0,1,1.618-.194c8.866,0,17.668.259,26.535,0,19.8-.518,33.007,21.81,25.629,44.009-3.43,10.226-9.319,17.927-18.38,21.681a18.721,18.721,0,0,1-6.731,1.424c-9.061.259-18.121.259-27.182.324C532.165,347.032,531.841,346.838,531,346.773Zm15.4-33.007v11.067c0,3.754.065,7.507,0,11.261,0,1.553.323,2.265,1.812,2.071,2.783-.324,5.631-.259,8.349-.712,5.372-.841,10.42-2.718,14.368-7.248,4.919-5.76,5.825-12.944,5.048-20.516-.971-10.679-5.954-17.215-15.079-19.286-4.013-.971-8.284-.777-12.361-1.23-1.683-.194-2.265.518-2.265,2.524C546.468,299.011,546.4,306.324,546.4,313.767Z" transform="translate(-161.811 -45.033)" fill="#0f4069"/>
    <path id="Path_97" data-name="Path 97" d="M104.3,355.149c1.942-2.783,3.624-5.307,5.436-7.572a11.594,11.594,0,0,0,2.395-7.766c-.065-22.716,0-45.433.065-68.149,0-3.56-.712-6.537-2.848-9.061-.971-1.165-1.747-2.459-2.848-4.077,1.036-.065,1.683-.259,2.2-.259,4.789,0,9.449.065,14.238-.065,1.683,0,2.136.582,2.136,2.459-.065,25.693,0,51.451,0,77.145,0,3.171,0,3.171,2.653,3.171h24.917a18.525,18.525,0,0,1,2.395.194c-.582.971-.906,1.553-1.294,2.071-2.718,3.689-5.372,7.313-8.155,10.808a3.7,3.7,0,0,1-2.395,1.294c-12.3.194-24.593.194-36.954.194A14.293,14.293,0,0,0,104.3,355.149Z" transform="translate(-11.266 -37.487)" fill="#0f4069"/>
    <path id="Path_98" data-name="Path 98" d="M237.681,346.843H186.1c1.747-2.071,3.171-3.948,4.724-5.566a5.884,5.884,0,0,0,1.489-4.207q0-23.493.065-46.986a8.021,8.021,0,0,0-1.489-5.048c-1.165-1.489-2.136-3.236-3.43-5.178.841-.065,1.424-.259,1.942-.259h36.437c2.33,0,2.33,0,2.33,2.783v9.255c0,.583-.065,1.294-.129,2.524a23.03,23.03,0,0,0-2.524-2.524c-.971-.582-2.071-1.424-3.107-1.424-5.631-.194-11.261,0-16.892-.065-1.359,0-1.877.453-1.877,2.071.065,3.559.065,7.249,0,10.808,0,1.553.518,2.006,1.812,1.942,3.818-.065,7.572,0,11.391,0,1.23,0,1.747.453,1.683,1.942-.065,2.33-.065,4.789,0,7.184.065,1.683-.518,2.071-1.877,2.071-3.689-.065-7.378.065-11.067-.065-1.424,0-1.942.453-1.877,2.2.065,5.5,0,10.938.065,16.439,0,2.718,0,2.718,2.33,2.718,7.378,0,14.691.065,22.069,0a4.927,4.927,0,0,1,4.271,2.071c1.812,2.33,3.818,4.66,5.76,6.925A1.1,1.1,0,0,0,237.681,346.843Z" transform="translate(-40.126 -45.037)" fill="#0f4069"/>
    <path id="Path_99" data-name="Path 99" d="M433.151,195.441a6.637,6.637,0,0,1,1.683-.259h11.908c1.294,0,1.747.518,1.747,2.006-.065,9.19,0,18.315,0,27.505,0,.971.065,1.942-1.165,2.2-10.161,1.812-20.386,3.3-30.547.453-8.608-2.524-15.6-7.7-19.416-17.28-6.537-16.439.453-35.66,15.274-42.2,9.514-4.207,19.221-3.948,29.059-2.006.453.065,1.036.971,1.036,1.424.065,2.977.065,5.825,0,8.8-.065,2.265-.388,2.459-2.265,1.683a36.6,36.6,0,0,0-16.956-2.912c-16.827,1.424-21.292,19.545-15.209,32.165,4.983,10.226,13.008,13.656,22.652,13.073a42.939,42.939,0,0,0,5.76-1.035c.971-.194,1.359-.777,1.359-2.006-.065-4.53.065-9-.065-13.526a5.692,5.692,0,0,0-1.23-2.783A32.08,32.08,0,0,0,433.151,195.441Z" transform="translate(-113.795 -4.434)" fill="#0f4069"/>
    <path id="Path_100" data-name="Path 100" d="M357.2,279.894c.906-.065,1.488-.194,2.071-.194h36.437c1.812,0,2.33.582,2.265,2.718-.129,3.818,0,7.766,0,11.585-.129.065-.323.194-.453.259a22.364,22.364,0,0,0-2.265-2.589,4.821,4.821,0,0,0-2.783-1.424c-5.76-.065-11.52,0-17.28-.065-1.294,0-1.812.453-1.747,2.006.065,3.689.065,7.443,0,11.067,0,1.488.518,1.812,1.683,1.812,3.818-.065,7.572,0,11.39,0,1.294,0,1.812.518,1.747,2.006-.065,2.33-.065,4.789,0,7.184.065,1.553-.518,2.006-1.812,2.006-3.689-.065-7.507,0-11.2-.065-1.294,0-1.877.259-1.877,2.006.065,5.76.065,11.455,0,17.215,0,1.683.518,2.071,1.877,2.071,7.572-.065,15.144,0,22.781,0,.777,0,1.489.194,2.718.259-1.036,2.006-2.071,3.495-2.718,5.177-1.359,3.236-3.495,4.271-6.666,4.207-11-.259-21.94-.065-32.877-.065h-2.071a1.144,1.144,0,0,0-.324-.518c.906-1.036,1.747-2.265,2.718-3.236,2.653-2.33,3.3-5.307,3.3-9.061-.129-14.432-.065-28.8,0-43.232a9.265,9.265,0,0,0-1.812-6.213C359.336,283.389,358.43,281.706,357.2,279.894Z" transform="translate(-100.104 -45.073)" fill="#0f4069"/>
    <path id="Path_101" data-name="Path 101" d="M88.7,227.691c1.747,2.524,3.171,4.66,4.6,6.731a1.051,1.051,0,0,1-.324.582c-2.136,0-4.142.065-6.278,0a19.863,19.863,0,0,1-3.883-.453c-1.683-.324-2.2.453-1.942,2.2.906,7.184,1.683,14.3,2.718,21.487a83.017,83.017,0,0,0,12.426,32.295,11.551,11.551,0,0,1,1.812,7.054c-.129,2.006,0,4.013-.324,6.213a81.435,81.435,0,0,1-20.257-32.295c-5.436-16.05-5.889-32.683-3.495-49.9.971.518,1.683.841,2.33,1.23,6.8,3.818,13.785,5.436,21.163,2.265,16.18-6.925,19.48-29.9,8.931-41.291a12.478,12.478,0,0,1-1.035-1.553c.841-.065,1.424-.194,1.942-.194,12.944,0,25.823,0,38.767-.065,1.812,0,2.33.582,2.33,2.718-.129,5.5.518,4.724-4.271,4.724H122.222c-2.265,0-2.33,0-2.136,2.524.518,7.249.324,14.5-1.618,21.487a32.844,32.844,0,0,1-6.6,12.75,4.4,4.4,0,0,1-2.395.971c-4.789.065-9.643,0-14.368.065C93.163,227.368,91.222,227.5,88.7,227.691Z" transform="translate(0 -10.603)" fill="#0f4069"/>
    <path id="Path_102" data-name="Path 102" d="M530.845,168.05a8.2,8.2,0,0,1-.712,1.036c-3.236,2.524-3.689,6.084-3.624,10.29.13,13.073.13,26.276,0,39.414,0,2.524.453,4.53,2.2,6.084,1.035.971,2.071,2.006,3.042,2.977l-.388.777a17.215,17.215,0,0,1-1.812.194c-3.43,0-6.731-.065-10.161.065-1.747.065-2.783-.324-2.395-2.589a2.5,2.5,0,0,0-.259-1.165,6.606,6.606,0,0,0-.971.518c-7.184,5.5-14.95,6.019-22.652,2.071-5.048-2.589-8.09-7.313-8.284-13.979-.259-12.232-.453-24.464-.453-36.7,0-2.977-.583-5.307-2.654-7.054a8.958,8.958,0,0,1-1.424-1.747c.906-.065,1.424-.194,2.071-.194,3.106,0,6.148.065,9.255-.065,1.618-.065,2.071.518,1.941,2.33-.065,11.973,0,23.946-.065,35.919-.065,10.743,6.407,16.309,16.05,13.72,5.825-1.553,8.025-4.789,8.025-11.714V170.315c0-1.812.453-2.33,2.071-2.33,3.042.065,6.084,0,9.061,0A12.582,12.582,0,0,1,530.845,168.05Z" transform="translate(-143.924 -5.649)" fill="#0f4069"/>
    <path id="Path_103" data-name="Path 103" d="M372.411,228.665c-4.077,0-8.09.065-12.167-.065-.583,0-1.359-1.23-1.683-2.071-2.2-5.825-4.336-11.714-6.278-17.668-.712-2.071-1.747-2.912-3.689-2.783q-6.6.291-13.2,0c-1.683-.065-2.395.712-3.042,2.33-2.071,6.019-4.142,12.038-6.148,18.186-.518,1.553-1.294,2.2-2.718,2.071-2.265-.194-4.6,0-7.184,0,.259-.971.324-1.683.518-2.265,6.148-17.021,12.167-34.042,18.38-51.063.582-1.747.453-2.912-.777-4.013a31.863,31.863,0,0,1-2.848-3.3c.906-.065,1.489-.259,2.136-.259,4.271,0,8.413.065,12.62-.065,1.618,0,2.395.712,3.042,2.33,5.7,16.05,11.455,32.165,17.021,48.215a19.225,19.225,0,0,0,4.53,7.831,17.242,17.242,0,0,1,1.683,2.006A3.013,3.013,0,0,1,372.411,228.665Zm-29.9-46.986h-.518c-1.747,4.983-3.56,9.967-5.436,15.209h10.938C345.747,191.646,344.064,186.663,342.511,181.679Z" transform="translate(-86.062 -5.558)" fill="#0f4069"/>
    <path id="Path_104" data-name="Path 104" d="M250.453,227.694a19.268,19.268,0,0,0,3.107-2.977,8.036,8.036,0,0,0,1.489-4.077c.065-14.044-.065-28.153,0-42.2,0-3.236-.518-5.76-2.783-7.7-.777-.582-1.489-1.294-2.265-1.942l.388-.777c.582-.065,1.23-.259,1.747-.259,11.132,0,22.263,0,33.395-.065,1.618,0,2.071.582,1.942,2.33-.065,3.495,0,6.99-.065,10.484,0,.712-.065,1.294-.065,2.006-.129.065-.324.259-.453.324-.777-1.036-1.618-2.006-2.265-3.042a6.694,6.694,0,0,0-5.954-3.3c-4.336,0-8.608.065-12.944.065-1.036,0-1.489.453-1.424,1.683,0,3.495.065,6.99,0,10.484,0,1.424.453,1.942,1.683,1.942,3.3-.065,6.666,0,9.9,0,1.294,0,1.812.453,1.812,2.006-.065,2.006-.065,3.948,0,5.954.065,1.294-.453,1.812-1.618,1.812-3.236,0-6.537.065-9.773,0-1.359,0-1.877.453-1.812,2.071q.1,7.378,0,14.756c-.065,1.942.583,2.265,2.136,2.265,7.184-.065,14.3,0,21.487,0h2.589c-1.035,3.236-1.942,6.019-2.977,8.737a1.5,1.5,0,0,1-1.23.582H251.812c-.324,0-.518-.194-.841-.259A6.473,6.473,0,0,1,250.453,227.694Z" transform="translate(-62.671 -5.558)" fill="#0f4069"/>
    <path id="Path_105" data-name="Path 105" d="M607.32,220.128c-1.942,2.718-3.948,5.436-5.954,8.025a2.012,2.012,0,0,1-1.618.582c-10.614.065-21.228.065-31.842.065-.388,0-.776-.194-1.618-.324,1.036-1.23,1.812-2.265,2.718-3.171a6.823,6.823,0,0,0,1.877-5.048c-.065-14.3-.065-28.735,0-43.038,0-2.265-.453-4.077-2.071-5.566-.971-.971-1.877-2.006-2.912-2.977a4.092,4.092,0,0,1,.259-.582,10.749,10.749,0,0,1,1.424-.194h33.266c2.524,0,2.524,0,2.395,2.783v9.578c0,.712-.065,1.294-.065,2.524a12.331,12.331,0,0,1-2.071-2.071c-2.136-3.43-4.919-4.336-8.478-4.077a100.348,100.348,0,0,1-10.808,0c-1.359,0-1.877.518-1.812,2.071.065,3.3.065,6.731,0,10.031,0,1.424.453,1.942,1.683,1.942,3.236-.065,6.537.065,9.772-.065,1.618-.065,2.136.582,1.942,2.33-.065,1.683-.065,3.43,0,5.177.065,1.683-.453,2.33-1.877,2.265-3.106-.065-6.278,0-9.384-.065-1.359,0-1.877.453-1.812,2.071q.1,7.378,0,14.756c0,1.747.518,2.2,1.942,2.2,7.637-.065,15.274,0,22.975,0,.583,0,1.294.065,1.877.065C607.191,219.675,607.255,219.934,607.32,220.128Z" transform="translate(-174.124 -5.628)" fill="#0f4069"/>
    <path id="Path_106" data-name="Path 106" d="M660.612,182.14c-9.19,12.038-10.1,24.27-1.23,35.789,9.255,12.167,20.581,10.29,32.036,4.013,5.825,10.484-.712,54.428-9.514,63.683a57.407,57.407,0,0,1-4.6-6.407,4.482,4.482,0,0,1,.065-3.042c1.812-6.666,4.077-13.073,5.436-19.933,1.359-6.99,1.747-14.173,2.653-21.746a50.782,50.782,0,0,0-5.825.453c-1.683.259-2.589-.194-2.265-2.265.259-1.683-.777-2.071-1.747-2.589-5.954-2.912-12.361-3.754-18.769-4.013-2.589-.065-4.336-1.23-5.7-3.689-2.718-4.983-4.6-10.161-4.466-16.18.065-2.006-.583-4.013-.712-6.019-.13-2.524-.065-5.177,0-7.766.065-2.977.129-2.977-2.395-2.977-3.948,0-7.831-.065-11.714,0-1.359,0-1.877-.453-1.877-2.071.065-6.407-.583-5.242,4.4-5.307,7.9-.065,15.727,0,23.622,0C658.67,182.14,659.382,182.14,660.612,182.14Z" transform="translate(-196.74 -10.614)" fill="#0f4069"/>
    <path id="Path_107" data-name="Path 107" d="M186.7,223.2c.906-.777,1.877-1.683,2.783-2.459a7.083,7.083,0,0,0,2.2-5.307c0-16.7,0-33.395-.129-50.028a6.235,6.235,0,0,0-1.294-3.43,25,25,0,0,0-3.107-3.3,1.6,1.6,0,0,1,.259-.582,17.224,17.224,0,0,1,1.812-.194c3.883,0,7.7.065,11.585,0,1.683-.065,2.136.518,2.136,2.459-.065,17.668,0,35.272-.065,52.94,0,2.783,0,2.783,2.395,2.783h22.716a1.794,1.794,0,0,0,.324.582c-.971,1.23-2.136,2.265-2.977,3.56-2.265,3.43-5.048,4.336-8.8,4.271-9.255-.259-18.51-.065-27.7-.065-.518,0-1.035-.065-1.489-.065A8.4,8.4,0,0,0,186.7,223.2Z" transform="translate(-40.338 -2.098)" fill="#0f4069"/>
    <path id="Path_108" data-name="Path 108" d="M351.7,157.547c8.284-6.472,49.316-7.7,57.017-1.747-.777.194-1.359.259-1.942.453-2.848.777-5.76,1.553-8.608,2.265a31.559,31.559,0,0,1-6.99,1.165c-8.543-.259-17.021-.518-25.5,1.23-.971.194-1.683.194-2.071-1.23-.518-1.942-2.071-2.071-3.495-2.071C357.46,157.547,354.742,157.547,351.7,157.547Z" transform="translate(-98.552 0)" fill="#0f4069"/>
    <path id="Path_109" data-name="Path 109" d="M227.823,182.182H237.6c1.23,0,1.812.324,1.812,1.942.065,5.5.129,5.5-4.6,5.5-5.5,0-11.067-.065-16.5,0-1.359,0-1.877-.518-1.812-2.071.129-6.407-.712-5.178,4.4-5.242A61.251,61.251,0,0,1,227.823,182.182Z" transform="translate(-50.849 -10.656)" fill="#0f4069"/>
    <path id="Path_110" data-name="Path 110" d="M331.06,173.05c-1.036.712-2.071,1.23-2.848,1.812-3.689,2.718-7.507,5.5-11.2,8.219-.453.324-.841.777-1.294,1.036-1.812.841-2.589.259-2.524-1.942.129-7.766-.906-5.7,4.724-9.319,2.524-1.683,5.048-3.171,7.572-4.919,1.294-.841,2.136-.582,2.977.777A31.809,31.809,0,0,0,331.06,173.05Z" transform="translate(-84.967 -5.471)" fill="#0f4069"/>
    <path id="Path_111" data-name="Path 111" d="M514.215,189.427h-6.731c-1.035,0-1.488-.453-1.488-1.683.065-7.054-.712-5.566,4.53-5.76,3.3-.065,6.731,0,10.1,0,1.23,0,1.683.453,1.683,1.942.129,5.5.129,5.5-4.724,5.5Z" transform="translate(-152.987 -10.587)" fill="#0f4069"/>
    <path id="Path_112" data-name="Path 112" d="M627.707,212.9c3.107,0,5.242,2.783,5.242,6.8,0,4.077-2.265,6.537-5.954,6.666-3.43.065-5.7-2.783-5.7-7.054C621.3,215.359,623.63,213.029,627.707,212.9Zm2.136,6.666c0-2.006-1.23-3.495-2.718-3.56-1.683-.065-2.977,1.489-2.848,3.56,0,2.006,1.23,3.43,2.783,3.43C628.743,223,629.843,221.572,629.843,219.566Z" transform="translate(-193.67 -21.505)" fill="#0f4069"/>
    <path id="Path_113" data-name="Path 113" d="M610.584,191.342h-13.85c-1.23,0-2.071-.324-1.942-2.071.065-1.553.777-2.071,2.071-2.071,3.171.065,6.342,0,9.514,0C608.384,187.2,609.743,188.559,610.584,191.342Z" transform="translate(-184.313 -12.438)" fill="#0f4069"/>
    <path id="Path_114" data-name="Path 114" d="M560.8,189.475c-4.53-.065-4.013.971-4.013-4.66,0-2.718,0-2.718,2.33-2.718,1.294,0,2.589.065,3.948,0s1.812.518,1.747,2.006v.583C564.751,190.381,565.4,189.411,560.8,189.475Z" transform="translate(-170.904 -10.636)" fill="#0f4069"/>
    <path id="Path_115" data-name="Path 115" d="M641.1,213.462a53.559,53.559,0,0,1,6.472.065c.583.065.971,1.683,1.747,2.977-1.618,0-2.589-.065-3.559,0-.388,0-.647.453-1.036.712.324.324.582.777.971.841.518.194,1.23-.065,1.747.065a1.8,1.8,0,0,1,1.036,1.23c.065.259-.583,1.23-.906,1.165-2.783-.453-3.106,1.424-2.783,3.948.065,1.036-.259,1.683-1.295,1.553-.777-.065-1.488,0-2.33,0A19.4,19.4,0,0,0,641.1,213.462Z" transform="translate(-200.656 -21.678)" fill="#0f4069"/>
    <path id="Path_116" data-name="Path 116" d="M675.044,363.4c1.359,2.071,1.424,4.207,0,5.954-3.495,4.207-8.025,5.242-12.944,4.983,2.2-1.747,4.466-3.3,6.666-5.177C670.837,367.413,672.908,365.406,675.044,363.4Z" transform="translate(-208.065 -74.603)" fill="#0f4069"/>
    <path id="Path_117" data-name="Path 117" d="M294.166,191.942H280.51c-.906,0-1.877,0-1.812-1.489,0-1.424.906-1.553,1.877-1.553H290.8C292.419,188.9,293.26,189.936,294.166,191.942Z" transform="translate(-72.795 -13.037)" fill="#0f4069"/>
    <path id="Path_118" data-name="Path 118" d="M478.386,184.749c-4.854-2.071-6.666-6.666-4.336-10.549C477.868,176.4,479.292,179.9,478.386,184.749Z" transform="translate(-141.363 -7.851)" fill="#0f4069"/>
    <path id="Path_119" data-name="Path 119" d="M631.466,221.26c0,2.006-1.165,3.43-2.783,3.43s-2.783-1.424-2.783-3.43c0-2.071,1.23-3.56,2.848-3.56C630.236,217.765,631.466,219.253,631.466,221.26Z" transform="translate(-195.293 -23.198)" fill="#0f4069"/>
  </g>
</svg>
