<svg xmlns="http://www.w3.org/2000/svg" width="321.561" height="60.842" viewBox="0 0 321.561 60.842">
  <g id="Group_5" data-name="Group 5" transform="translate(-80.896 -918.811)">
    <g id="Group_1" data-name="Group 1" transform="translate(151.814 941.952)">
      <path id="Path_1" data-name="Path 1" d="M298.037,1007.868a.335.335,0,0,1-.334.483h-7.354a.866.866,0,0,1-.78-.483l-1.114-3.9h-6.983l-1.114,3.9a.866.866,0,0,1-.78.483h-7.354a.335.335,0,0,1-.334-.483l8.394-24.661a1.124,1.124,0,0,1,.891-.482h7.577a1.125,1.125,0,0,1,.892.482ZM284.963,991.6l-2.005,7.057h4.011Z" transform="translate(-271.853 -982.129)" fill="#3996fd"/>
      <path id="Path_2" data-name="Path 2" d="M365.56,1007.756c.186.334-.074.594-.409.594H357.2a.974.974,0,0,1-.854-.594l-3.862-8.1h-.446v8.171a.576.576,0,0,1-.595.52H344.91a.566.566,0,0,1-.557-.52v-24.55a.571.571,0,0,1,.557-.557h9.8c5.72,0,9.508,3.342,9.508,8.394a7.835,7.835,0,0,1-4.568,7.094Zm-11.328-14.411a1.974,1.974,0,1,0,0-3.937h-2.191v3.937Z" transform="translate(-317.428 -982.129)" fill="#3996fd"/>
      <path id="Path_3" data-name="Path 3" d="M424.561,1005.142c.111.26-.037.52-.334.669a15.351,15.351,0,0,1-7.8,2.154c-7.651,0-12.777-5.348-12.777-13.37s5.125-13.37,12.777-13.37a15.351,15.351,0,0,1,7.8,2.154c.3.149.446.409.334.669l-2.451,5.162a.482.482,0,0,1-.706.3,8.233,8.233,0,0,0-4.308-1.04c-3.342,0-5.571,2.451-5.571,6.128s2.229,6.128,5.571,6.128a8.233,8.233,0,0,0,4.308-1.04.482.482,0,0,1,.706.3Z" transform="translate(-354.704 -981.187)" fill="#3996fd"/>
      <path id="Path_4" data-name="Path 4" d="M482.552,982.724a.486.486,0,0,1,.52.52l-.557,5.645a.63.63,0,0,1-.594.52h-5.534v18.422a.531.531,0,0,1-.52.52h-6.574a.566.566,0,0,1-.557-.52V989.409h-6.165a.531.531,0,0,1-.52-.52v-5.608a.566.566,0,0,1,.52-.557Z" transform="translate(-391.415 -982.129)" fill="#3996fd"/>
      <path id="Path_5" data-name="Path 5" d="M529.345,982.724a.547.547,0,0,1,.557.557v24.55a.54.54,0,0,1-.557.52h-6.574a.559.559,0,0,1-.52-.52v-24.55a.566.566,0,0,1,.52-.557Z" transform="translate(-429.258 -982.129)" fill="#3996fd"/>
      <path id="Path_6" data-name="Path 6" d="M569.36,1005.142c.111.26-.038.52-.334.669a15.351,15.351,0,0,1-7.8,2.154c-7.651,0-12.777-5.348-12.777-13.37s5.125-13.37,12.777-13.37a15.351,15.351,0,0,1,7.8,2.154c.3.149.446.409.334.669l-2.451,5.162a.482.482,0,0,1-.706.3,8.234,8.234,0,0,0-4.308-1.04c-3.342,0-5.571,2.451-5.571,6.128s2.229,6.128,5.571,6.128a8.234,8.234,0,0,0,4.308-1.04.482.482,0,0,1,.706.3Z" transform="translate(-445.727 -981.187)" fill="#3996fd"/>
      <path id="Path_7" data-name="Path 7" d="M624.485,999.608c.111-.371.371-.483.669-.3a14.058,14.058,0,0,0,5.163,1.783c1.189,0,1.968-.557,1.968-1.411,0-2.192-10.436-2.08-10.436-10.177,0-4.976,3.751-8.282,9.4-8.282a16.1,16.1,0,0,1,8.32,2.674c.3.186.408.483.3.668l-2.34,5.237c-.112.371-.371.483-.669.3a14.981,14.981,0,0,0-5.237-1.931c-1.151,0-1.894.52-1.894,1.337,0,2.192,10.511,2.043,10.511,10.214,0,4.94-3.826,8.245-9.545,8.245a14.1,14.1,0,0,1-8.245-2.451c-.3-.223-.409-.483-.3-.669Z" transform="translate(-491.867 -981.187)" fill="#071b2d"/>
      <path id="Path_8" data-name="Path 8" d="M693.848,982.724a.486.486,0,0,1,.52.52l-.557,5.645a.63.63,0,0,1-.594.52h-5.534v18.422a.531.531,0,0,1-.52.52h-6.574a.566.566,0,0,1-.557-.52V989.409h-6.165a.531.531,0,0,1-.52-.52v-5.608a.566.566,0,0,1,.52-.557Z" transform="translate(-524.24 -982.129)" fill="#071b2d"/>
      <path id="Path_9" data-name="Path 9" d="M742.732,1007.864c-7.911,0-13.185-5.348-13.185-13.333,0-8.06,5.274-13.408,13.185-13.408s13.185,5.348,13.185,13.408C755.916,1002.516,750.643,1007.864,742.732,1007.864Zm0-19.239c-3.046,0-5.088,2.377-5.088,5.906s2.043,5.905,5.088,5.905,5.088-2.377,5.088-5.905S745.777,988.625,742.732,988.625Z" transform="translate(-559.569 -981.123)" fill="#071b2d"/>
      <path id="Path_10" data-name="Path 10" d="M828.053,1007.756c.186.334-.074.594-.409.594H819.7a.975.975,0,0,1-.854-.594l-3.862-8.1h-.446v8.171a.576.576,0,0,1-.595.52H807.4a.566.566,0,0,1-.557-.52v-24.55a.571.571,0,0,1,.557-.557h9.8c5.72,0,9.508,3.342,9.508,8.394a7.836,7.836,0,0,1-4.568,7.094Zm-11.328-14.411a1.974,1.974,0,1,0,0-3.937h-2.191v3.937Z" transform="translate(-608.16 -982.129)" fill="#071b2d"/>
      <path id="Path_11" data-name="Path 11" d="M896.566,982.724a.54.54,0,0,1,.52.557v24.55a.532.532,0,0,1-.52.52H889.7a.566.566,0,0,1-.557-.52V996.911l-3.751,10.882a1.128,1.128,0,0,1-.929.557h-4.085a1.127,1.127,0,0,1-.928-.557l-3.751-10.882v10.919a.566.566,0,0,1-.557.52h-6.871a.531.531,0,0,1-.52-.52v-24.55a.54.54,0,0,1,.52-.557h7.762a1.568,1.568,0,0,1,1.263.743l5.125,14.187,5.125-14.187a1.569,1.569,0,0,1,1.263-.743Z" transform="translate(-646.443 -982.129)" fill="#071b2d"/>
    </g>
    <g id="Group_4" data-name="Group 4" transform="translate(80.896 918.811)">
      <path id="Path_12" data-name="Path 12" d="M129.3,975.322l1.216.757L135,968.1l4.918,9.656,1.64-1.609s.789,1.684,1.6,3.5H150l-34.5-60.842L80.9,979.653h6.817c.807-1.818,1.6-3.5,1.6-3.5l1.64,1.609,4.919-9.656,4.491,7.974,1.216-.757,2.037,4.331h5.795l6.095-10.672,5.991,10.672h5.769Zm-4.035-23.555H105.6v0l4.128-8.78,1.216.757,4.491-7.974,4.918,9.656,1.64-1.609S125.718,951.766,125.263,951.766Z" transform="translate(-80.896 -918.811)" fill="#071b2d"/>
      <g id="Group_3" data-name="Group 3" transform="translate(12.003)">
        <g id="Group_2" data-name="Group 2" transform="translate(0 19.067)">
          <path id="Path_13" data-name="Path 13" d="M166.116,975.2l1.219.829,1.657-1.593,2.98,1.593-3.031-5.875Z" transform="translate(-146.47 -970.153)" fill="#3996fd"/>
          <path id="Path_14" data-name="Path 14" d="M119.072,1062.275l-2.826-5.047-3.031,5.875,2.98-1.593,1.657,1.593Z" transform="translate(-113.215 -1024.89)" fill="#3996fd"/>
          <path id="Path_15" data-name="Path 15" d="M224.675,1063.1l-3.031-5.875-2.826,5.047,1.219.829,1.657-1.593Z" transform="translate(-179.599 -1024.89)" fill="#3996fd"/>
        </g>
        <path id="Path_16" data-name="Path 16" d="M172.815,927.353l-2.129,1.925-2.731-2.228-2.727,1.884-.864-3.782,3.607-6.341" transform="translate(-145.368 -918.811)" fill="#3996fd"/>
      </g>
    </g>
  </g>
</svg>
