<svg xmlns="http://www.w3.org/2000/svg" width="64.484" height="56.772" viewBox="0 0 64.484 56.772">
  <g id="Group_36" data-name="Group 36" transform="translate(-2216.746 -1333.618)">
    <path id="Path_125" data-name="Path 125" d="M2261.911,1386.348l1.134.706,4.191-7.44,4.589,9.01,1.53-1.5s.737,1.571,1.49,3.267h6.385l-32.194-56.772-32.29,56.772h6.362c.753-1.7,1.49-3.267,1.49-3.267l1.53,1.5,4.589-9.01,4.191,7.44,1.135-.706,1.9,4.041h5.407l5.687-9.958,5.591,9.958h5.383Zm-3.766-21.979H2239.8v0l3.852-8.193,1.134.706,4.191-7.441,4.59,9.011,1.53-1.5S2258.571,1364.369,2258.145,1364.369Z" transform="translate(0 0)" fill="#3996fd"/>
    <g id="Group_32" data-name="Group 32" transform="translate(2227.946 1333.618)">
      <g id="Group_31" data-name="Group 31" transform="translate(0 17.792)">
        <path id="Path_126" data-name="Path 126" d="M2236.666,1350.328l1.137.773,1.546-1.486,2.781,1.486-2.828-5.483Z" transform="translate(-2218.334 -1345.619)" fill="#def6fe"/>
        <path id="Path_127" data-name="Path 127" d="M2229.766,1370.681l-2.637-4.709-2.828,5.482,2.781-1.486,1.546,1.486Z" transform="translate(-2224.301 -1335.797)" fill="#def6fe"/>
        <path id="Path_128" data-name="Path 128" d="M2254.449,1371.454l-2.828-5.482-2.637,4.709,1.138.773,1.546-1.486Z" transform="translate(-2212.389 -1335.797)" fill="#def6fe"/>
      </g>
      <path id="Path_129" data-name="Path 129" d="M2244.141,1341.588l-1.987,1.8-2.548-2.079-2.544,1.758-.806-3.529,3.365-5.917" transform="translate(-2218.531 -1333.618)" fill="#def6fe"/>
    </g>
  </g>
</svg>
