<svg id="redbull-logo-svgrepo-com" xmlns="http://www.w3.org/2000/svg" width="297.406" height="180.883" viewBox="0 0 297.406 180.883">
  <path id="Path_82" data-name="Path 82" d="M148.7,94.272c.263.05.526.1.788.143Zm2.15.358c.306.046.612.086.919.127Zm2.273.273c.3.027.6.053.9.076Zm1.216.1c.252.018.5.033.757.047Zm1.125.066q.449.02.9.034Zm1.195.038q1,.027,2,0Zm2.324,0q.467-.014.934-.036Zm1.228-.05c.27-.015.536-.032.8-.05Zm1.083-.07c.292-.022.585-.047.875-.074Zm2.373-.241c.225-.026.449-.055.671-.091Zm41.045-75.5q-.363-.2-.744-.355Zm-2.439-.877q-.467-.1-.941-.144ZM260.69,63.992l-.17.024ZM42.609,50.736a8.994,8.994,0,0,1-2.4-3.623,12.843,12.843,0,0,1-.917-3.829,13.215,13.215,0,0,1,6.732-11.546,7.733,7.733,0,0,0,2.408-1.761,1.14,1.14,0,0,0-.365-.093c-4.732,0-7.158-1.839-8.349-3.395a8.713,8.713,0,0,1-1.7-5.392,12.434,12.434,0,0,1,.418-3.112c1.334-2.2,2.6-1.6,3.376-.471.494.706,3.882,3.107,8.056,3.488a7.315,7.315,0,0,1,5.526,2.961A7.734,7.734,0,0,1,56.751,28.4a6.444,6.444,0,0,1-.189,1.6c-.457,1.856-2.413,3.529-5.137,5.661L49.88,36.941c-2.262,1.979-3.507,4.182-3.507,6.049a3.818,3.818,0,0,0,.239,1.341,3.245,3.245,0,0,0,.236.5c1.011,1.711,3.867,2.784,8.011,1.335a26.451,26.451,0,0,0,7.853-5.217C65.361,38.3,68.9,37.668,72.3,37.4c2.952-.223,4.77-.947,6.05-2.386,3.783-4.262,7.423-4.861,10.83-5.115,1.3-.1,1.374-.194,1.544-.423a13.963,13.963,0,0,1,5.539-4.6,17.379,17.379,0,0,1,3.512-1.071l1.2-.295.3-.106c1.9-.611,3.365-1.116,7.223-3.724l.165-.1v0l.162-.1h0l.163-.1h0l.163-.093h0l.164-.086.005,0,.162-.084.005,0,.163-.079.007,0,.164-.076.006,0,.165-.069.007,0,.164-.068.009,0,.164-.062.008,0,.163-.058.173-.058.011,0,.162-.052.011,0,.164-.048.011,0,.163-.045.012,0,.164-.039.015,0,.161-.037.013,0,.165-.033.014,0,.163-.03.015,0,.163-.027.015,0,.161-.024.017,0,.162-.018.017,0,.159-.018h.018l.161-.015.018,0,.16-.011.018,0,.157-.01h.018l.159-.007.178-.005h.018l.158,0h.2l.157,0h.037c.113,0,.225.01.338.016l.155.01.022,0,.152.011.023,0,.152.015.024,0,.151.015.025,0,.15.018.024,0,.15.018.026,0,.148.022.025,0,.149.023.026.005.145.026.027,0,.144.026.026.006c.23.043.457.094.68.149l.14.035.028.008q.336.087.664.185l.129.04.032.01c.433.136.852.29,1.259.453l.114.048.15.062A47.485,47.485,0,0,1,155.48.054v0q1.1-.049,2.191-.05.725,0,1.449.022c.24.008.48.018.72.027h0c.238.011.478.023.716.038a47.509,47.509,0,0,1,35.123,18.892,14.407,14.407,0,0,1,3.72-.785l.034,0,.122-.008.128-.006.031,0h.033l.125,0,.033,0h.476l.158,0,.128.005h.028l.128.006.03,0,.129.009.025,0,.131.011.026,0,.132.013.024,0a9.5,9.5,0,0,1,.941.144l.138.028.018,0,.136.033.019,0,.137.035.018,0,.139.037.015,0,.143.04.013,0,.139.043.016,0,.142.047.012,0,.153.054.143.051.009,0,.142.055.009,0,.145.058.009,0c.251.106.5.223.744.355l0,0,.145.077,0,0,.145.084h0l.145.088h0l.143.091h0l.145.093a28.128,28.128,0,0,0,5.505,3.123c.589.235,1.137.412,1.717.6l.305.106,1.21.295a22.273,22.273,0,0,1,2.218.576,13.465,13.465,0,0,1,6.813,5.09c.171.23.246.323,1.556.423,3.4.254,7.038.852,10.836,5.115,1.27,1.439,3.079,2.162,6.03,2.386,3.425.269,6.949.9,9.592,3.546a26.429,26.429,0,0,0,7.857,5.217c4.142,1.45,7.012.377,8-1.335a3.436,3.436,0,0,0,.435-1.177,3.82,3.82,0,0,0,.059-.66c0-1.867-1.247-4.07-3.5-6.049l-.281-.233-1.279-1.048c-2.713-2.132-4.67-3.8-5.141-5.661a6.459,6.459,0,0,1-.178-1.6,7.865,7.865,0,0,1,1.348-4.438A7.375,7.375,0,0,1,264.073,21c4.2-.381,7.566-2.783,8.058-3.488.789-1.127,2.044-1.732,3.372.471a12.244,12.244,0,0,1,.422,3.112,8.7,8.7,0,0,1-1.7,5.392c-1.2,1.556-3.617,3.395-8.357,3.395a1.115,1.115,0,0,0-.357.093,7.54,7.54,0,0,0,2.405,1.761,13.23,13.23,0,0,1,6.739,11.546,12.47,12.47,0,0,1-.924,3.829,9.115,9.115,0,0,1-2.006,3.254c-.12.125-.246.248-.379.369-1.958,1.819-5.22,3.247-10.655,2.922q-.858-.052-1.713-.155c-.141,2.742-.893,6-1.951,7.646a2.085,2.085,0,0,0-.385,1.033c0,.071.007.113.007.143.033.011,2.411,1.415,2.411,1.415l.384.194s.223.106.252.129c.034-.012.822-.048.822-.048l.156-.022.016,0c1.487-.142,3.757-.869,4.722,1.826.252.715.406,1.338.552,1.89a4.312,4.312,0,0,0,1.534,2.726s.488-.419,1.042-.911q.642-.567,1.259-1.162c.688-.7,1.961-.347,2.878,0a23.826,23.826,0,0,1,2.889,1.614,3.051,3.051,0,0,1,1.5,1.734,3.1,3.1,0,0,0,1.678,1.609,4.856,4.856,0,0,1,2.034,4.051,2.814,2.814,0,0,0,.124.87,4.175,4.175,0,0,0,.257.611c1.168,2.355.23,3.541-.446,4.041a5.626,5.626,0,0,1-4.022.716l.012.387-2.2-.294a9.038,9.038,0,0,0-2.651.252l-.158.042a4.562,4.562,0,0,1-4.769-2.089c-.042-.07-.084-.139-.124-.213a7.345,7.345,0,0,0-1.95-2.255,7.742,7.742,0,0,1-2.884.295,6.886,6.886,0,0,1-3.752-1.642c-.219-.182-.44-.384-.659-.6a7.366,7.366,0,0,0-6.122-2.1l-.962.171c-1.985.359-4.464.816-6.754-.581a18.281,18.281,0,0,0-2.2-1.046c-2.079-.905-4.228-1.839-4.521-3.807a5.614,5.614,0,0,0-.742-1.5,12.552,12.552,0,0,1-.8-1.474,4.272,4.272,0,0,1-.4-1.6,7.015,7.015,0,0,1-2.086.213q-.372-.019-.741-.073l-.9-.14c-1.521-.26-4.706-.783-5.721-.413a31.191,31.191,0,0,1-10.118.682s-.641-.141-1.246-.269a15.264,15.264,0,0,1-1.909,1.662,22.529,22.529,0,0,1,3.168.11l1.6.422a9.226,9.226,0,0,1,2.471-.069l1.876.141,2.139.206c1.031.207,2.125.652,1.938,2.672a3.732,3.732,0,0,1-.945,2.021,20.2,20.2,0,0,0-1.652,2.448l-.08.159a2.817,2.817,0,0,1-2.961,1.781,6.775,6.775,0,0,0-.715.028c-.057.152-.211.435-.211.435a6.791,6.791,0,0,1-2.2,3.077l-.312.224a4.857,4.857,0,0,1-4.892.9l-.823-.295a61.3,61.3,0,0,1-6.829-2.748l-.223-.123c-1.482-.811-1.81-.974-2.349-.9l-.3.047a4.221,4.221,0,0,1-4.761-2.009l-.136-.213a47.575,47.575,0,0,1-29.769,18.8l-.054.011c-.415.076-.834.146-1.253.212l-.156.023-.573.084c-.223.033-.446.063-.671.091l-.408.051-.644.069-.446.047c-.29.027-.583.052-.875.074l-.277.018c-.268.018-.534.036-.8.05l-.294.016c-.311.015-.621.026-.934.036l-.318.005q-1,.025-2,0l-.3,0q-.449-.015-.9-.034l-.366-.02c-.252-.014-.5-.027-.757-.047l-.321-.021q-.448-.035-.9-.076l-.442-.046-.585-.063-.326-.038q-.461-.057-.919-.128l-.37-.055-.655-.1-.337-.056c-.263-.047-.526-.092-.788-.143l-.567-.113-.29-.059c-.388-.084-.779-.168-1.164-.261l-.1-.024-.606-.148-.311-.08c-.362-.093-.721-.194-1.08-.294l-.128-.038a47.61,47.61,0,0,1-25.971-18.749l-.81,1.233A4.206,4.206,0,0,1,112.9,77.75l-.3-.047c-.537-.076-.876.087-2.344.9l-.236.123a59.908,59.908,0,0,1-6.823,2.748l-.825.295a4.824,4.824,0,0,1-4.878-.9l-.323-.224a6.824,6.824,0,0,1-2.2-3.077s-.141-.282-.209-.435a6.841,6.841,0,0,0-.717-.028,2.818,2.818,0,0,1-2.955-1.781l-.076-.159a19.16,19.16,0,0,0-1.662-2.448,3.68,3.68,0,0,1-.941-2.021c-.194-2.02.916-2.465,1.937-2.672l2.14-.206,1.879-.141a9.156,9.156,0,0,1,2.46.069l1.6-.422a22.432,22.432,0,0,1,3.16-.11,18.19,18.19,0,0,1-1.9-1.662c-.611.128-1.247.269-1.247.269a31.049,31.049,0,0,1-10.1-.682c-1.02-.37-4.2.152-5.731.413l-.917.14a7,7,0,0,1-2.806-.14,6.728,6.728,0,0,1-1.205,3.077,5.688,5.688,0,0,0-.751,1.5c-.274,1.968-2.45,2.9-4.523,3.807A18.5,18.5,0,0,0,70.22,74.98c-2.273,1.4-4.764.94-6.754.581L62.5,75.39a7.373,7.373,0,0,0-6.119,2.1,6.958,6.958,0,0,1-7.295,1.949A7.3,7.3,0,0,0,47.136,81.7a4.57,4.57,0,0,1-4.9,2.3l-.163-.042A8.86,8.86,0,0,0,39.45,83.7L37.234,84l.024-.387a5.671,5.671,0,0,1-4.039-.716c-.671-.5-1.612-1.686-.424-4.041a3.059,3.059,0,0,0,.369-1.481,4.855,4.855,0,0,1,2.022-4.051,3.045,3.045,0,0,0,1.684-1.609,3.02,3.02,0,0,1,1.5-1.734,23.953,23.953,0,0,1,2.884-1.614c.921-.347,2.194-.7,2.888,0,.7.681,2.3,2.073,2.3,2.073,1.47-1.135,1.329-2.443,2.091-4.617.953-2.7,3.232-1.968,4.712-1.826l.17.024s.8.035.822.048c.041-.024.265-.129.265-.129l.37-.194s2.389-1.4,2.413-1.415a.478.478,0,0,0,.011-.143,2.053,2.053,0,0,0-.381-1.033c-1.063-1.645-1.814-4.9-1.95-7.646-.384.046-.754.084-1.118.113-5.787.464-9.226-1-11.237-2.885Z" transform="translate(-3.877 0)" fill="#3996fd"/>
  <g id="Group_22" data-name="Group 22" transform="translate(30.194 18.576)">
    <path id="Path_83" data-name="Path 83" d="M57.107,54.045a17.656,17.656,0,0,0,1.62,8.78s1.558,2.208-.06,3.626l-3.221,1.872a3.067,3.067,0,0,1-1.869.213s-1.986-.492-2.649.385A26.212,26.212,0,0,1,49.631,72s-1.466,3.369-3.894,4.449a3.724,3.724,0,0,0-2.521,2.121A2.424,2.424,0,0,1,41.343,79.8s-.932.3-1.548,2.371a11.139,11.139,0,0,0-.318,2.372A6.86,6.86,0,0,1,42.1,84.7s2.546.855,3.684-1.242c0,0,2.2-3.766,3.83-3.2a5.7,5.7,0,0,0,5.59-1.295s3.178-3.472,7.668-2.758c0,0,5.057,1.024,6.634-.143,0,0,3.189-1.667,4.385-2.081a2.388,2.388,0,0,0,1.615-2.033,15.527,15.527,0,0,1,1.538-3.006l-2.412-.027a11.727,11.727,0,0,1-5.9,4.781s-2.029.811-6.1.152c0,0-5.849-1.325-10.987,4.224a1.513,1.513,0,0,1-1.7.609A13.964,13.964,0,0,1,59.014,72.7a11.994,11.994,0,0,1,3.741-.157,13.814,13.814,0,0,0,12.288-8.019s-.421-7.047,1.437-8.715c0,0,.718-.22.574,1.143,0,0-1.277,7.382,1.122,8.811a5.32,5.32,0,0,0,3.969.69,20.96,20.96,0,0,1,7.081-.39,29.854,29.854,0,0,0,9.078.623,6.207,6.207,0,0,1-.875-3.662s.6-1.428,1.29-.509c0,0,1.614,5.333,6.026,6.933a6.543,6.543,0,0,1,3.876,6.432s-.6.685-5.828,2.541c0,0-1.952.617-2.581-.842,0,0-2.52-5.393-4.713-5.226l-4.118.334s-1.4.36-.37,1.486A28.967,28.967,0,0,1,93,77.164s.168.956,1.493.753c0,0,1.838-.911,2.874,2.508a5.375,5.375,0,0,0,2.554,2.256,3.931,3.931,0,0,0,2.911-.289s6.8-2.5,7.985-3.382a3.866,3.866,0,0,1,2.637-.428s2.04.486,2.88-1.123l2.108-3.261a3.544,3.544,0,0,0,.4-1.812,2.614,2.614,0,0,0-.652-2.015,4.226,4.226,0,0,1-.922-1.452l-1.5-3.531a4.871,4.871,0,0,0-1.277-1.331l-2.006.147a33.367,33.367,0,0,0,2.391,4.965s1.368,2.092,1.3,3.422a2.808,2.808,0,0,1-.458,1.321s-.463.741-.649,1.1a5.085,5.085,0,0,1-1.1,1.612,6.232,6.232,0,0,1-1.061.525s-.371.1-.1-.562a10.723,10.723,0,0,0,1.05-3.631,2.4,2.4,0,0,0-.714-2.089,37.5,37.5,0,0,1-2.5-4.48,6.858,6.858,0,0,0-1.05-1.616.9.9,0,0,1,.469-1.474,22.811,22.811,0,0,0,3.62-1.07s1.476-.447,2.435-3.521a21.767,21.767,0,0,0,1.3-5.8,9.489,9.489,0,0,1-1.54,10.064s3.266.963,4.618,0c0,0,4.069-.595,4.854-.811,0,0,1.023-.247.439.479a8.287,8.287,0,0,0-1.331,2.889,2.161,2.161,0,0,1-.825,1.444s-2.313,1.62-2.516,3.17c0,0-.494,1.493.527,1.136,0,0,1.385-.641,1.874,0,0,0,.143.068-.391.667a4.673,4.673,0,0,0-1.493,2.831,7.26,7.26,0,0,0,.748,2.474,1.571,1.571,0,0,0,1.614.592.818.818,0,0,1,.735-.069,6.566,6.566,0,0,0,1.766-.443s1.936-.532,2.584-.761a13.882,13.882,0,0,1,3.681-.82,6.518,6.518,0,0,1,1.8.114,6.482,6.482,0,0,0,5.137-1.92s1.563-1.24,2.094-.036c0,0,3.75,5.032,9.82,3.706,0,0-4.83-1.986-6.082-4.692,0,0-.167-2.3-2.7-5.487,0,0-.773-1.058-.027-1.334,0,0,.432-.323,1.374.623a16.507,16.507,0,0,1,3.272,4.416s2.985,4.51,7.287,2.995a11.828,11.828,0,0,1-4.964-3.733,12.313,12.313,0,0,0-4.278-5.735s-.129-3.7-1.667-5.773c0,0-.784-3.47-.995-4.282a28.663,28.663,0,0,1-.824-3.89,11.019,11.019,0,0,0-2.293-7.081,21.615,21.615,0,0,0-4.4-5.626s-2.036-2.515-3.55-4.055a36.479,36.479,0,0,0-6.334-5.381,28.087,28.087,0,0,1-3.406-2.966s-7.66-5.513-13.193-1.091a27.494,27.494,0,0,1-7.013,3.4s-6.559.764-9.356,5.316c0,0-.239.841-2.883,1.161A11.636,11.636,0,0,0,79.5,39.418a10.688,10.688,0,0,1-5.919,2.41s-6.413-.656-10.588,4.26c0,0-10.535,9.19-16.817,3.23,0,0-3.255-3.082.466-8.662a39.527,39.527,0,0,1,6.387-5.825s3.266-2.3,1.769-5.879c0,0-.791-3.457-5.686-3.549,0,0-6.143-1.187-8.627-4.289,0,0-2.774,9.769,8.113,9.606,0,0,2.837.42,1.847,2.672a8.4,8.4,0,0,1-3.258,2.628s-3.284,1.437-4.768,6.219c0,0-3.317,8.371,4.775,11.6,3.114,1.076,6.711.759,9.916.2ZM41.528,73.771a1.981,1.981,0,0,1,1.653-.44c1.288.277.508,1.393.508,1.393a15.994,15.994,0,0,1-2.224,2.622,1.98,1.98,0,0,1-2.713-.216c-1.122-1.106.338-1.641.338-1.641A13.64,13.64,0,0,0,41.528,73.771ZM38.282,79a.877.877,0,0,1,.219,1.034,20.073,20.073,0,0,0-1.145,4.393s-2.659.475-3.028-.837a2.1,2.1,0,0,1,.362-1.241,4.539,4.539,0,0,0,.568-1.939s-.04-3.155,2-2.319A3.73,3.73,0,0,1,38.282,79Zm93.733-6.675c-.468-.011-.587-.183-.53-.7a3.228,3.228,0,0,1,1.463-2.051c2.155-1.288,2.417,0,2.417,0,.395,2.3-1.423,2.59-1.423,2.59A12.893,12.893,0,0,1,132.015,72.329Zm6.5-10.273c.04-1.079.131-3.478-.966-4.335-.4-.322-2.006-2.075-2.006-2.075-.244-.425-.431-.451-.431-.451-.33-.032-.756.735-.756.735-1.14,2.2-2.278,1.932-2.278,1.932a1.894,1.894,0,0,1,.259-.849q.826-1.6,1.635-3.215c.166-.382.319-.89.319-.89,1.1-1.706,2.138-.407,2.138-.407a42.458,42.458,0,0,0,2.93,3.847,2.619,2.619,0,0,1,.6,1.35c.572,4.032-1.445,4.358-1.445,4.358ZM115.79,37.717a1.761,1.761,0,0,1,.141-1.814c.764-1.17,1.477.106,1.477.106,2.636,3.675.69,9.178.69,9.178-.271-5.065-2.307-7.471-2.307-7.471ZM257.347,54.045a17.656,17.656,0,0,1-1.62,8.78s-1.558,2.208.06,3.626l3.221,1.872a3.064,3.064,0,0,0,1.869.213s1.985-.492,2.647.385a26.378,26.378,0,0,0,1.3,3.076s1.469,3.369,3.9,4.449a3.719,3.719,0,0,1,2.519,2.121A2.427,2.427,0,0,0,273.11,79.8s.933.3,1.549,2.371a11.152,11.152,0,0,1,.32,2.372,6.869,6.869,0,0,0-2.626.166s-2.545.855-3.683-1.242c0,0-2.2-3.766-3.83-3.2a5.7,5.7,0,0,1-5.59-1.295s-3.178-3.472-7.668-2.758c0,0-5.055,1.024-6.633-.143,0,0-3.189-1.667-4.385-2.081a2.385,2.385,0,0,1-1.614-2.033,15.545,15.545,0,0,0-1.539-3.006l2.411-.027a11.723,11.723,0,0,0,5.895,4.781s2.031.811,6.1.152c0,0,5.85-1.325,10.988,4.224a1.513,1.513,0,0,0,1.7.609,13.958,13.958,0,0,0-9.071-5.988,12,12,0,0,0-3.742-.157,13.817,13.817,0,0,1-12.29-8.019s.423-7.047-1.436-8.715c0,0-.716-.22-.575,1.143,0,0,1.276,7.382-1.121,8.811a5.323,5.323,0,0,1-3.97.69,20.95,20.95,0,0,0-7.079-.39,29.869,29.869,0,0,1-9.08.623,6.2,6.2,0,0,0,.876-3.662s-.6-1.428-1.291-.509c0,0-1.614,5.333-6.027,6.933a6.543,6.543,0,0,0-3.876,6.432s.605.685,5.831,2.541c0,0,1.953.617,2.582-.842,0,0,2.517-5.393,4.711-5.226l4.12.334s1.4.36.369,1.486a29.273,29.273,0,0,0-1.986,2.994s-.166.956-1.492.753c0,0-1.838-.911-2.876,2.508a5.367,5.367,0,0,1-2.552,2.256,3.931,3.931,0,0,1-2.911-.289s-6.8-2.5-7.984-3.382A3.868,3.868,0,0,0,201,78.582s-2.038.486-2.878-1.123L196.018,74.2a3.53,3.53,0,0,1-.4-1.812,2.609,2.609,0,0,1,.652-2.015,4.212,4.212,0,0,0,.922-1.452l1.5-3.531a4.877,4.877,0,0,1,1.276-1.331l2.008.147a33.375,33.375,0,0,1-2.394,4.965s-1.368,2.092-1.3,3.422a2.819,2.819,0,0,0,.458,1.321s.463.741.65,1.1a5.048,5.048,0,0,0,1.1,1.612,6.2,6.2,0,0,0,1.061.525s.372.1.093-.562a10.792,10.792,0,0,1-1.049-3.631,2.409,2.409,0,0,1,.714-2.089,37.68,37.68,0,0,0,2.5-4.48,6.812,6.812,0,0,1,1.049-1.616A.9.9,0,0,0,204.4,63.3a22.8,22.8,0,0,1-3.619-1.07s-1.476-.447-2.436-3.521a21.8,21.8,0,0,1-1.3-5.8,9.488,9.488,0,0,0,1.54,10.064s-3.266.963-4.618,0c0,0-4.068-.595-4.856-.811,0,0-1.02-.247-.438.479A8.317,8.317,0,0,1,190,65.528a2.152,2.152,0,0,0,.825,1.444s2.313,1.62,2.514,3.17c0,0,.5,1.493-.527,1.136,0,0-1.384-.641-1.873,0,0,0-.143.068.391.667a4.669,4.669,0,0,1,1.492,2.831,7.247,7.247,0,0,1-.749,2.474,1.57,1.57,0,0,1-1.613.592.82.82,0,0,0-.737-.069,6.566,6.566,0,0,1-1.766-.443s-1.936-.532-2.584-.761a13.882,13.882,0,0,0-3.682-.82,6.518,6.518,0,0,0-1.8.114,6.484,6.484,0,0,1-5.138-1.92s-1.563-1.24-2.092-.036c0,0-3.751,5.032-9.822,3.706,0,0,4.832-1.986,6.084-4.692,0,0,.165-2.3,2.7-5.487,0,0,.772-1.058.026-1.334,0,0-.431-.323-1.374.623A16.536,16.536,0,0,0,167,71.144s-2.987,4.51-7.287,2.995a11.827,11.827,0,0,0,4.962-3.733,12.308,12.308,0,0,1,4.281-5.735s.128-3.7,1.667-5.773c0,0,.785-3.47.994-4.282a28.689,28.689,0,0,0,.823-3.89,11.017,11.017,0,0,1,2.293-7.081,21.575,21.575,0,0,1,4.4-5.626s2.035-2.515,3.548-4.055a36.513,36.513,0,0,1,6.335-5.381,28.064,28.064,0,0,0,3.4-2.966s7.659-5.513,13.194-1.091a27.485,27.485,0,0,0,7.015,3.4s6.557.764,9.352,5.316c0,0,.239.841,2.883,1.161a11.638,11.638,0,0,1,10.083,5.01,10.688,10.688,0,0,0,5.92,2.41s6.41-.656,10.585,4.26c0,0,10.536,9.19,16.819,3.23,0,0,3.253-3.082-.467-8.662a39.509,39.509,0,0,0-6.385-5.825s-3.269-2.3-1.77-5.879c0,0,.791-3.457,5.686-3.549,0,0,6.143-1.187,8.626-4.289,0,0,2.776,9.769-8.113,9.606,0,0-2.838.42-1.847,2.672a8.4,8.4,0,0,0,3.258,2.628s3.284,1.437,4.769,6.219c0,0,3.317,8.371-4.778,11.6-3.11,1.076-6.706.759-9.911.2Zm15.58,19.727a1.981,1.981,0,0,0-1.652-.44c-1.29.277-.509,1.393-.509,1.393a16.03,16.03,0,0,0,2.225,2.622,1.979,1.979,0,0,0,2.713-.216c1.12-1.106-.34-1.641-.34-1.641A13.677,13.677,0,0,1,272.927,73.771ZM276.171,79a.882.882,0,0,0-.219,1.034,20.116,20.116,0,0,1,1.146,4.393s2.661.475,3.027-.837a2.1,2.1,0,0,0-.362-1.241,4.539,4.539,0,0,1-.568-1.939s.04-3.155-2-2.319A3.738,3.738,0,0,0,276.171,79Zm-93.734-6.675c.469-.011.589-.183.531-.7a3.231,3.231,0,0,0-1.462-2.051c-2.155-1.288-2.418,0-2.418,0-.393,2.3,1.424,2.59,1.424,2.59A12.872,12.872,0,0,0,182.438,72.329Zm-6.5-10.273c-.04-1.079-.133-3.478.966-4.335.406-.322,2.006-2.075,2.006-2.075.244-.425.431-.451.431-.451.328-.032.757.735.757.735,1.138,2.2,2.278,1.932,2.278,1.932a1.894,1.894,0,0,0-.261-.849q-.825-1.6-1.634-3.214-.181-.437-.319-.89c-1.1-1.706-2.137-.407-2.137-.407a42.482,42.482,0,0,1-2.929,3.847,2.619,2.619,0,0,0-.6,1.35c-.569,4.032,1.447,4.358,1.447,4.358Zm22.727-24.338a1.761,1.761,0,0,0-.141-1.814c-.764-1.17-1.475.106-1.475.106-2.637,3.675-.691,9.178-.691,9.178.269-5.065,2.307-7.471,2.307-7.471Z" transform="translate(-34.323 -21.116)" fill="#0f4069"/>
  </g>
  <path id="Path_84" data-name="Path 84" d="M0,126.386v67.422H13.6V139.253h6.41s10.006-.45,10.006,8.658-8.883,8.882-8.883,8.882H17.876v15.519l13.607,21.5H47.447l-19-27.568s15.629-1.349,15.629-18.329-11.807-21.525-27.546-21.525Zm198.908,31.536a17.691,17.691,0,0,0,5.957-13.417c0-8.787-6.381-16.708-19.969-16.708H162.14v66.011h28.029s20.09-.228,20.09-18.383C210.26,164.887,206.169,160.851,198.908,157.922Zm-10.964,24.4h-12.2V139.308h6.52s8.86-.665,8.86,7.065-7.048,7.048-7.048,7.048h-4.06v11.588h7.924c2.077,0,8.694,1.007,8.694,8.622S187.945,182.32,187.945,182.32ZM284.7,125.06h12.707v68.749H284.7V125.06Zm-21.868,0h12.874v68.749H262.832V125.06Zm-48.743,28.475H227.13v23.048s.454,7.762,7.76,7.762,7.2-7.762,7.2-7.762V153.645H255.24v23.729s1.688,18.552-20.014,18.552-21.137-16.3-21.137-19.227ZM127.623,125.06v31.175s-6.3-4.834-13.5-4.834-19.337,5.059-19.337,21.024,10.345,22.041,19.227,22.041a19,19,0,0,0,13.832-5.848v5.192h12.816v-68.75h-13.04Zm-9.9,58.158c-.676,0-9.109.113-9.109-10.23s9.219-10.683,9.219-10.683,10.346.337,10.346,10.457S118.4,183.218,117.726,183.218ZM69.151,151.4c21.813,0,20.913,21.252,20.913,21.252v3.371H60.493a9.229,9.229,0,0,0,9.557,9c5.509,0,8.32-5.284,8.32-5.284L88.826,184.9c-4.834,7.311-11.355,10.232-18.663,10.232C47.449,195.136,47,176.248,47,173.888s.34-22.488,22.151-22.488Zm-8.434,16.863H76.911s-.675-7.643-7.983-7.643S60.717,168.263,60.717,168.263Z" transform="translate(0 -15.043)" fill="#0f4069"/>
</svg>
