<svg xmlns="http://www.w3.org/2000/svg" width="56.052" height="56" viewBox="0 0 56.052 56">
  <path id="team-liquid" d="M268.342,49.368c-.775.93-1.705,1.981-2.756,3.1a26.614,26.614,0,0,0,2.773,2.239c.62.431,1.309.861,2.015,1.292A62.3,62.3,0,0,1,268.342,49.368Zm-1.275-10.8a66.642,66.642,0,0,1-7.407,3.1,24.217,24.217,0,0,0,2.153,5.908,66.057,66.057,0,0,0,5.512-3.893A37.687,37.687,0,0,1,267.068,38.568Zm4.823-16A61.887,61.887,0,0,1,258.3,15.107v7.751a66.325,66.325,0,0,0,11.644,3.135A26.129,26.129,0,0,1,271.891,22.565Zm5.1-5.771a63.5,63.5,0,0,1-8.7-11.179L261.366,8.01A58.655,58.655,0,0,0,274.234,19.5,31.2,31.2,0,0,1,276.99,16.795Zm3.187-2.377a26.517,26.517,0,0,1,3.635-1.964,67.754,67.754,0,0,1-3.032-11.162l-6.167,2.153A65.768,65.768,0,0,0,280.176,14.418ZM268.446,29.766a68.352,68.352,0,0,1-10.077-.362c.069,2.2.172,4.255.345,6.167a67.348,67.348,0,0,0,8.751-1.6A35.025,35.025,0,0,1,268.446,29.766Zm29.49-5.857c.62.517,2.239.034,2.239.034L299,22.548l-2.5-1.671C296.506,20.894,297.316,23.409,297.936,23.909Zm8.165,13.9L304.6,36.6l.861,2.084,2.429-.189ZM288.066,0a19.828,19.828,0,0,0-.19,11.369h0c.413-.431,3.6-3.772,6.477-6.907,0,0,3.772,4.341-1.5,8.8,0,0,9.422,6.58,10.025,6.856a9.037,9.037,0,0,0-.017,3.79l7.407,14.349-3.738,4.41-5.478-3.083,2.635,4.237s-2.98.362-3.893-.069a33.242,33.242,0,0,0-2.894-7.045l-5.581-2.257a11.9,11.9,0,0,1-2.274-7.338s-2.773,11.4,4.72,14.263l10.49,13.35c9.7-6.7,10.094-16.02,10.094-34.589V9.078Z" transform="translate(-258.3)" fill="#46beec"/>
</svg>
