<svg xmlns="http://www.w3.org/2000/svg" width="56.052" height="56.029" viewBox="0 0 56.052 56.029">
  <g id="layer101" transform="translate(-31.317 -44.608)">
    <path id="Path_130" data-name="Path 130" d="M57.172,74.774c0-25.413,0-25.863-.108-25.863a23.451,23.451,0,0,0-2.37.347,23.847,23.847,0,0,0-19.038,20.73,33.534,33.534,0,0,0,0,5.241A23.862,23.862,0,0,0,45.34,91.886,24.318,24.318,0,0,0,51.783,95.2a23.249,23.249,0,0,0,2.62.706c.08,0,.091.211.091,2.165a17.087,17.087,0,0,1-.057,2.165c-.114,0-1.481-.3-2.193-.484A28.132,28.132,0,0,1,35.422,87.278a37.461,37.461,0,0,1-2.136-4.244A28.144,28.144,0,0,1,31.36,74.66a41.207,41.207,0,0,1,.085-5.127,27.973,27.973,0,0,1,7.309-15.968,28.117,28.117,0,0,1,17.962-8.881,42.616,42.616,0,0,1,5.526.028,28.1,28.1,0,0,1,24.866,23.92,33.261,33.261,0,0,1,.2,6.118A28.631,28.631,0,0,1,85.4,83.005a36.995,36.995,0,0,1-2.148,4.272,28.2,28.2,0,0,1-16.3,12.339c-.7.194-2.546.621-2.706.621a12.772,12.772,0,0,1-.063-2.165c0-2.028.006-2.165.1-2.165a22.653,22.653,0,0,0,2.393-.632,21.973,21.973,0,0,0,3.031-1.23A23.052,23.052,0,0,0,76.113,89.5a22.652,22.652,0,0,0,4.472-6.152,23.348,23.348,0,0,0,2.427-8.118,33.447,33.447,0,0,0,.034-4.956A23.853,23.853,0,0,0,64.093,49.281a24.425,24.425,0,0,0-2.484-.37c-.108,0-.108.45-.108,25.863v25.863H57.172Z" transform="translate(0 0)"/>
    <path id="Path_131" data-name="Path 131" d="M5791.258,1395.61l.017-20.61.159.017a23.509,23.509,0,0,1,2.6.854,20.494,20.494,0,0,1,9.8,7.656,23.216,23.216,0,0,1,3.521,8.511,16.106,16.106,0,0,1,.262,3.583,16.818,16.818,0,0,1-.348,4.073,21.843,21.843,0,0,1-3.207,7.719l-.234.342-.012-6.893-.017-6.893-.245-.854a26.451,26.451,0,0,0-1.92-5.07l-.285-.513-.028,11.6-.029,11.6-.541.49a23.1,23.1,0,0,1-2.506,1.994l-.655.439-.017-15.352-.011-15.352-.575-.473c-.313-.262-.872-.689-1.236-.951l-.667-.473-.017,16.97-.012,16.97-.558.217a22.832,22.832,0,0,1-3.156,1C5791.252,1416.215,5791.247,1415.537,5791.258,1395.61Z" transform="translate(-5727.125 -1322.814)"/>
    <path id="Path_132" data-name="Path 132" d="M1242.484,1391.022a21.892,21.892,0,0,1-14.669-14.6l-.108-.387h4.58l.222.558a20.683,20.683,0,0,0,2.854,4.882,16.049,16.049,0,0,0,3.463,3.1l.211.131v-13H1227l.034-1.379a21.062,21.062,0,0,1,1.749-8.289,22.139,22.139,0,0,1,8.26-9.434,26.942,26.942,0,0,1,3.7-1.834,25.143,25.143,0,0,1,2.535-.769c.074,0,.085.849.085,6.494v6.494h-4.386v-6.449l-.467.33a16.7,16.7,0,0,0-6.534,9.3c-.125.427-.239.877-.262.991l-.04.211h11.69v11.963c0,6.58-.006,11.963-.011,11.957S1242.956,1391.17,1242.484,1391.022Z" transform="translate(-1188.872 -1297.956)"/>
  </g>
</svg>
